<svg width="20" height="22" viewBox="0 0 20 22" fill="none" xmlns="http://www.w3.org/2000/svg">
<path d="M1.6084 22C1.6084 20.755 1.6084 19.5106 1.6084 18.2479C7.20002 18.2479 12.7753 18.2479 18.3827 18.2479C18.3827 19.5009 18.3827 20.7504 18.3827 22C12.7911 22 7.19946 22 1.6084 22Z" fill="#F31616"/>
<path d="M10.6279 0C10.6279 0.977396 10.6279 1.95536 10.6279 2.94823C10.2084 2.94823 9.79964 2.94823 9.36328 2.94823C9.36328 1.9651 9.36328 0.982552 9.36328 0C9.78444 0 10.2062 0 10.6279 0Z" fill="#F31616"/>
<path d="M16.3959 16.9261C12.1241 16.9261 7.86518 16.9261 3.59277 16.9261C3.72284 16.0999 3.84896 15.2887 3.9779 14.478C4.24028 12.8331 4.50322 11.1883 4.76785 9.54346C5.14059 7.22257 7.05551 5.37091 9.35444 5.10507C12.2795 4.76705 14.8284 6.79747 15.2664 9.77606C15.5868 11.9543 15.9539 14.1256 16.2996 16.3004C16.3328 16.5038 16.3627 16.7084 16.3959 16.9261ZM9.37245 12.2528C9.79643 12.2528 10.2063 12.2528 10.6106 12.2528C10.6106 10.9299 10.6106 9.62367 10.6106 8.31627C10.19 8.31627 9.78573 8.31627 9.37245 8.31627C9.37245 9.63054 9.37245 10.9316 9.37245 12.2528ZM9.33642 13.2393C9.33642 13.6925 9.33642 14.1251 9.33642 14.5691C9.77391 14.5691 10.199 14.5691 10.6337 14.5691C10.6337 14.1205 10.6337 13.6828 10.6337 13.2393C10.1956 13.2393 9.7756 13.2393 9.33642 13.2393Z" fill="#F31616"/>
<path d="M16.8506 6.62632C17.6923 6.13246 18.5223 5.64491 19.3691 5.14819C19.5802 5.52174 19.7846 5.88439 19.9997 6.26481C19.158 6.75923 18.328 7.24621 17.4818 7.74293C17.2701 7.36825 17.0651 7.00559 16.8506 6.62632Z" fill="#F31616"/>
<path d="M3.14856 6.62632C2.93517 7.00502 2.73303 7.36309 2.51851 7.74293C1.67619 7.24908 0.842319 6.75924 0 6.26538C0.211706 5.89012 0.41384 5.53205 0.630613 5.14819C1.47124 5.64147 2.30455 6.13075 3.14856 6.62632Z" fill="#F31616"/>
<path d="M3.85742 1.85271C4.22791 1.63385 4.57812 1.42703 4.95142 1.20703C5.4379 2.06411 5.91761 2.90859 6.40746 3.77083C6.04373 3.98568 5.68789 4.19536 5.3129 4.41651C4.82643 3.55885 4.35009 2.71953 3.85742 1.85271Z" fill="#F31616"/>
<path d="M14.6878 4.4118C14.319 4.19409 13.9637 3.9844 13.5938 3.76612C14.0819 2.9056 14.5605 2.06169 15.0487 1.20117C15.4175 1.41888 15.7716 1.62799 16.1427 1.84742C15.6556 2.70622 15.177 3.54956 14.6878 4.4118Z" fill="#F31616"/>
</svg>
