<svg xmlns="http://www.w3.org/2000/svg" viewBox="0 0 20.58 20.58"><defs><style>.cls-1{fill:#1a1a1a;fill-rule:evenodd;}</style></defs><g id="Layer_2" data-name="Layer 2"><g id="レイヤー_1" data-name="レイヤー 1"><path class="cls-1" d="M10,0h.64l.82.08A9.78,9.78,0,0,1,15,1.16a10.14,10.14,0,0,1,4.68,5,9.56,9.56,0,0,1,.76,2.73c.05.36.08.73.12,1.09v.64c0,.28,0,.55-.08.82A10,10,0,0,1,19.41,15a10.07,10.07,0,0,1-4.92,4.63,9.62,9.62,0,0,1-2.78.79l-1.1.12H10a1.46,1.46,0,0,0-.22,0,9.65,9.65,0,0,1-2.13-.34A10.1,10.1,0,0,1,3,17.57,9.88,9.88,0,0,1,.89,14.44a10,10,0,0,1-.77-2.73L0,10.61V10c0-.08,0-.17,0-.25a10.07,10.07,0,0,1,.61-3A10.21,10.21,0,0,1,8.88.12C9.24.07,9.61,0,10,0ZM8.78,5.49h0c0-.34,0-.67,0-1a.73.73,0,0,0-1-.66A7,7,0,0,0,4.62,6.27a6.81,6.81,0,0,0-1.25,4.35A6.51,6.51,0,0,0,3.91,13a.73.73,0,0,0,1.27.23c.44-.44.87-.89,1.32-1.33a.24.24,0,0,0,.07-.29,3.92,3.92,0,0,1-.19-2,3.87,3.87,0,0,1,2.24-3,.25.25,0,0,0,.17-.26C8.78,6.13,8.78,5.81,8.78,5.49Zm8.46,4.62A10.9,10.9,0,0,0,17.1,9a6.79,6.79,0,0,0-4.26-5.15.72.72,0,0,0-1,.7c0,.57,0,1.14,0,1.71a.51.51,0,0,0,.34.56A3.92,3.92,0,0,1,14,11.66a.22.22,0,0,0,.06.27l1.32,1.32a.74.74,0,0,0,1.3-.25A7.41,7.41,0,0,0,17.24,10.11Zm-6.92,7.12A7,7,0,0,0,13,16.69a.74.74,0,0,0,.29-1.25c-.46-.48-.93-.94-1.41-1.4a.2.2,0,0,0-.18,0A4.11,4.11,0,0,1,8.9,14a.24.24,0,0,0-.22.05c-.47.45-.93.91-1.39,1.37a.74.74,0,0,0,.25,1.25A7.25,7.25,0,0,0,10.32,17.23ZM9.16,10.29a1.15,1.15,0,0,0,1.1,1.13,1.13,1.13,0,1,0,.05-2.26A1.15,1.15,0,0,0,9.16,10.29Z"/></g></g></svg>