<svg xmlns="http://www.w3.org/2000/svg" viewBox="0 0 293.06 35"><defs><style>.cls-1,.cls-5{fill:#bc4e25;}.cls-1{fill-rule:evenodd;}.cls-2{fill:#3e3a39;}.cls-3{fill:#1a1a1a;}.cls-4{fill:#4d4d4d;}</style></defs><g id="Layer_2" data-name="Layer 2"><g id="レイヤー_1" data-name="レイヤー 1"><path class="cls-1" d="M61,9.55a2.39,2.39,0,1,1,2.39,2.39A2.39,2.39,0,0,1,61,9.55Z"/><path class="cls-1" d="M55.28,9.55a2.39,2.39,0,1,1,2.39,2.39A2.39,2.39,0,0,1,55.28,9.55Z"/><path class="cls-1" d="M144.24,9.55a2.39,2.39,0,1,1,2.39,2.39A2.38,2.38,0,0,1,144.24,9.55Z"/><path class="cls-1" d="M138.5,9.55a2.39,2.39,0,1,1,2.39,2.39A2.39,2.39,0,0,1,138.5,9.55Z"/><path class="cls-1" d="M288.28,9.55a2.39,2.39,0,1,1,2.39,2.39A2.39,2.39,0,0,1,288.28,9.55Z"/><path class="cls-1" d="M282.54,9.55a2.39,2.39,0,1,1,2.39,2.39A2.39,2.39,0,0,1,282.54,9.55Z"/><rect class="cls-2" x="190.08" y="13.91" width="3.47" height="5.02"/><rect class="cls-2" x="194.77" y="13.91" width="3.47" height="5.02"/><rect class="cls-2" x="70.49" y="7.19" width="19.95" height="5.02"/><rect class="cls-2" x="145.81" y="16.85" width="16.99" height="5.02"/><rect class="cls-2" x="236.54" y="7.19" width="9.94" height="5.02"/><path class="cls-2" d="M197.81,28.65h-7.74v-5h7.74a4.81,4.81,0,0,0,4.79-4.43V13.91h5v5.28A9.77,9.77,0,0,1,197.81,28.65Z"/><path class="cls-2" d="M246.73,28.58H236.54v-5h10.19a4.8,4.8,0,0,0,4.79-4.43V7.18h5v12A9.77,9.77,0,0,1,246.73,28.58Z"/><path class="cls-2" d="M109.84,7.18a6.69,6.69,0,0,1-3.3,5.5c-2.59,1.48-3.46,1.47-8.26,1.42l-3.38,0v5l3.33,0,2,0A29.22,29.22,0,0,0,103.4,19v9.62h5V17.38l.61-.33a11.76,11.76,0,0,0,5.83-9.87Z"/><path class="cls-2" d="M116.81,28.74v-5c4,0,5.55-8.78,5.55-12.45V7.18h5v4.09C127.38,16.13,125.48,28.74,116.81,28.74Z"/><path class="cls-2" d="M129.94,7.14a52.06,52.06,0,0,1,4.85,21.49h5a57.14,57.14,0,0,0-4.37-21.49Z"/><path class="cls-2" d="M232.15,15.55h-7.06V13.1a8.19,8.19,0,0,0,6.86-6h-5.54a4.23,4.23,0,0,1-3.21,1.08h-11v5h7.86v2.31h-7.86v5h7.86v.32a3.23,3.23,0,0,1-3.5,2.67h-4.36v5h4.36c5.1,0,8.52-4,8.52-7.69v-.32h7.06Z"/><path class="cls-2" d="M90.49,14h-20v5h15v.65c0,1.64-1.66,3.91-4.79,3.91H73v5h7.73c6.06,0,9.82-4.64,9.82-8.94Z"/><path class="cls-2" d="M50.81,12.36V7.18h-5V28.63h5V19.81a10,10,0,0,0,4,.76h11v-5h-11C51.41,15.55,50.88,13.34,50.81,12.36Z"/><path class="cls-2" d="M165.68,7.19v5h15v3.31c0,.47-.16,2.8-3.5,2.8h-2c-.32-.63-.65-1.22-1-1.77h-6c1.67,2.34,4.89,7.72,4.89,12.08h5a18.27,18.27,0,0,0-.88-5.3c5.51-.06,8.4-3.95,8.4-7.81V7.19Z"/><path class="cls-2" d="M262.64,7.19V14h-1.71v5h1.74c3.08,0,5-1.94,5-5.07V12.21h8.25v6.92a4.56,4.56,0,0,1-4.79,4.43h-5v5h5a9.65,9.65,0,0,0,9.81-9.45V7.19Z"/><path class="cls-3" d="M10.29,6.89c0,.14,0,.27,0,.41A12.37,12.37,0,0,1,17.5,5a12.68,12.68,0,0,1,3,.35,7.84,7.84,0,0,1,2.16-4.11L23,.88A17.74,17.74,0,0,0,17.5,0,17.38,17.38,0,0,0,7,3.49a3.38,3.38,0,0,1,3.28,3.4Z"/><path class="cls-3" d="M24.73,27.7A12.37,12.37,0,0,1,17.5,30a12.71,12.71,0,0,1-2.9-.34,7.91,7.91,0,0,1-2.14,3.94c-.17.17-.35.33-.53.48A17.51,17.51,0,0,0,28,31.51a3.39,3.39,0,0,1-3.26-3.81Z"/><path class="cls-4" d="M.87,23c.14-.17.29-.34.45-.5a7.86,7.86,0,0,1,4-2.14A12.63,12.63,0,0,1,5,17.5,12.42,12.42,0,0,1,8.65,8.66h0A2.51,2.51,0,0,0,6.89,4.39a2.61,2.61,0,0,0-.48.05,2.48,2.48,0,0,0-1.29.69L5,5.29A17.51,17.51,0,0,0,.87,23Z"/><path class="cls-4" d="M34.1,12c-.11.13-.21.26-.33.38a7.87,7.87,0,0,1-4.12,2.16,12.18,12.18,0,0,1,.36,3,12.41,12.41,0,0,1-2.42,7.39h0l-.31.39-.09.12-.22.26-.2.22,0,0c-.13.14-.26.28-.4.41h0a2.49,2.49,0,1,0,3.53,3.52c.21-.21.42-.42.62-.64l.09-.11.49-.57,0,0A17.54,17.54,0,0,0,34.1,12Z"/><path class="cls-5" d="M22,6.8A6.24,6.24,0,1,1,28.2,13,6.24,6.24,0,0,1,22,6.8Z"/><path class="cls-5" d="M.66,28.11a6.24,6.24,0,1,1,6.23,6.24A6.23,6.23,0,0,1,.66,28.11Z"/></g></g></svg>
