<svg xmlns="http://www.w3.org/2000/svg" viewBox="0 0 23.35 23.34"><defs><style>.cls-1{fill:#bc4e25;fill-rule:evenodd;}</style></defs><g id="Layer_2" data-name="Layer 2"><g id="レイヤー_1" data-name="レイヤー 1"><path class="cls-1" d="M19.82,23.34h-.05l-.09-.14c-2.38-2.38-2-2.05-4.42-4.44a.22.22,0,0,0-.32,0A9.7,9.7,0,0,1,9.62,20a9.58,9.58,0,0,1-6.31-2.58A9.54,9.54,0,0,1,.36,7.56,9.67,9.67,0,0,1,8.46.15c.31-.06.63-.1.95-.15h1.17l.22.05a9.37,9.37,0,0,1,4,1.18A9.78,9.78,0,0,1,20,9.61a9.39,9.39,0,0,1-1.24,5.25.34.34,0,0,0,.07.49l4.24,4.25a1.39,1.39,0,0,0,.27.17,3.67,3.67,0,0,1-.26.27L20,23.13C19.93,23.19,19.88,23.27,19.82,23.34ZM16.35,10a6.33,6.33,0,1,0-6.28,6.32A6.33,6.33,0,0,0,16.35,10Z"/><path class="cls-1" d="M14.85,10.13c0,.25,0,.5,0,.76a.52.52,0,0,1-.42.5.46.46,0,0,1-.53-.33,6.29,6.29,0,0,0-1.06-1.87A5.86,5.86,0,0,0,9,7.07C8.74,7,8.49,7,8.25,7a.5.5,0,0,1-.52-.43c-.05-.24,0-.4.32-.54a4.77,4.77,0,0,1,5.58,1.09A4.6,4.6,0,0,1,14.85,10.13Z"/></g></g></svg>