<svg xmlns="http://www.w3.org/2000/svg" viewBox="0 0 150 150"><defs><style>.cls-1{fill:#fff;}.cls-2{fill:#1a1a1a;}.cls-3{fill:#4d4d4d;}.cls-4{fill:#bc4e25;}</style></defs><g id="Layer_2" data-name="Layer 2"><g id="レイヤー_1" data-name="レイヤー 1"><circle class="cls-1" cx="75" cy="75" r="75"/><path class="cls-2" d="M57.54,47.48a9.26,9.26,0,0,1-.07,1.05,32,32,0,0,1,18.67-6,32.76,32.76,0,0,1,7.62.9,20.2,20.2,0,0,1,5.61-10.61c.31-.32.64-.6,1-.89a45.25,45.25,0,0,0-41.28,6.73,8.78,8.78,0,0,1,8.48,8.77Z"/><path class="cls-2" d="M94.8,101.19a32.28,32.28,0,0,1-26.16,5.07,20.17,20.17,0,0,1-5.5,10.17c-.45.45-.91.86-1.38,1.25A45.23,45.23,0,0,0,103.21,111a8.76,8.76,0,0,1-8.41-9.82Z"/><path class="cls-3" d="M33.22,89c.37-.44.74-.87,1.16-1.28a20.21,20.21,0,0,1,10.3-5.54,32.54,32.54,0,0,1-.82-7.27A32.07,32.07,0,0,1,53.31,52h0a6.44,6.44,0,0,0-4.55-11,6.26,6.26,0,0,0-1.23.12,6.32,6.32,0,0,0-3.33,1.77c-.14.13-.26.27-.39.41A45.22,45.22,0,0,0,33.22,89Z"/><path class="cls-3" d="M119,60.67c-.28.32-.55.65-.86,1a20.24,20.24,0,0,1-10.62,5.6,32.31,32.31,0,0,1-5.33,26.7s0,0,0,0l-.79,1c-.08.09-.15.19-.23.29l-.58.68c-.17.19-.33.39-.5.57l-.09.1c-.33.36-.67.72-1,1.07h0a6.44,6.44,0,0,0,9.12,9.1c.55-.54,1.07-1.1,1.58-1.66l.24-.28c.44-.49.86-1,1.27-1.47l.06-.09A45.23,45.23,0,0,0,119,60.67Z"/><path class="cls-4" d="M87.66,47.25a16.09,16.09,0,1,1,16.09,16.09A16.09,16.09,0,0,1,87.66,47.25Z"/><circle class="cls-4" cx="48.76" cy="102.25" r="16.09" transform="translate(-54.1 149.7) rotate(-89.27)"/></g></g></svg>