<svg width="12" height="20" viewBox="0 0 12 20" fill="none" xmlns="http://www.w3.org/2000/svg">
<path d="M10.6764 5.45463C10.2453 5.45463 9.89821 5.79199 9.89821 6.21103V13.7856C9.89821 15.8772 8.15553 17.5747 6.00002 17.5747C3.8445 17.5747 2.10183 15.8772 2.10183 13.7856V4.69469C2.10183 3.44114 3.1467 2.42196 4.44001 2.42196C5.73332 2.42196 6.77819 3.44114 6.77819 4.69469V12.2728C6.77819 12.6919 6.42747 13.0292 6.00002 13.0292C5.57257 13.0292 5.22184 12.6919 5.22184 12.2728V6.21103C5.22184 5.79199 4.87111 5.45463 4.44366 5.45463C4.01256 5.45463 3.66549 5.79199 3.66549 6.21103V12.2728C3.66549 13.5299 4.71036 14.5455 6.00367 14.5455C7.29698 14.5455 8.34185 13.5299 8.34185 12.2728V4.69824C8.3382 2.60662 6.59187 0.90918 4.44001 0.90918C2.28815 0.90918 0.545471 2.60662 0.545471 4.69824V13.7892C0.545471 16.7188 2.9896 19.091 6.00002 19.091C9.01043 19.091 11.4546 16.7153 11.4546 13.7892V6.21103C11.4546 5.79199 11.1075 5.45463 10.6764 5.45463Z" fill="#8A8A8A"/>
</svg>
