<svg width="32" height="32" viewBox="0 0 32 32" fill="none" xmlns="http://www.w3.org/2000/svg">
<path d="M30.222 10.6667H25.7776C24.3073 10.6667 23.1109 9.47028 23.1109 8.00005V1.77783H8.88867V30.2223H30.222V10.6667Z" fill="white"/>
<path d="M30.222 8.88889V8.368L24.8887 3.03467V8C24.8887 8.48889 25.2887 8.88889 25.7776 8.88889H30.222Z" fill="white"/>
<path opacity="0.64" fill-rule="evenodd" clip-rule="evenodd" d="M31.4793 7.11111L24.8891 0.520889C24.5558 0.187468 24.1037 0.000100689 23.6322 0H8.88911C7.90727 0 7.11133 0.795938 7.11133 1.77778V30.2222C7.11133 31.2041 7.90727 32 8.88911 32H30.2224C31.2043 32 32.0002 31.2041 32.0002 30.2222V8.368C32.0001 7.89654 31.8127 7.44443 31.4793 7.11111ZM30.222 8.368V8.88889H25.7776C25.287 8.88791 24.8897 8.49051 24.8887 8V3.03467L30.222 8.368ZM8.88867 2.13339V29.8667C8.88867 30.0631 9.04786 30.2223 9.24423 30.2223H29.8664C30.0628 30.2223 30.222 30.0631 30.222 29.8667V10.6667H25.7776C24.3048 10.6667 23.1109 9.47281 23.1109 8.00005V1.77783H9.24423C9.04867 1.77783 8.88867 1.93783 8.88867 2.13339Z" fill="#605E5C"/>
<path d="M27.5557 19.5557H19.5557V21.3334H27.5557C28.0466 21.3334 28.4446 20.9355 28.4446 20.4446C28.4446 19.9536 28.0466 19.5557 27.5557 19.5557Z" fill="#185ABD"/>
<path d="M27.5557 16H19.5557V17.7778H27.5557C28.0466 17.7778 28.4446 17.3798 28.4446 16.8889C28.4446 16.398 28.0466 16 27.5557 16Z" fill="#2B7CD3"/>
<path d="M27.5557 12.4443H19.5557V14.2221H27.5557C28.0466 14.2221 28.4446 13.8241 28.4446 13.3332C28.4446 12.8423 28.0466 12.4443 27.5557 12.4443Z" fill="#41A5EE"/>
<path d="M1.77778 26.6665H16C16.9818 26.6665 17.7778 25.8705 17.7778 24.8887V10.6664C17.7778 9.68461 16.9818 8.88867 16 8.88867H1.77778C0.795938 8.88867 0 9.68461 0 10.6664V24.8887C0 25.8705 0.795938 26.6665 1.77778 26.6665Z" fill="#185ABD"/>
<path d="M11.0401 22.9971L8.88901 15.1038L6.74501 22.9971H5.18767L3.12012 12.6113H4.69523L6.13167 19.4131L8.04101 12.6113H9.58056L11.6303 19.5731L13.0561 12.6113H14.6295L12.5957 22.9971H11.0401Z" fill="white"/>
</svg>
