<svg width="16" height="20" viewBox="0 0 16 20" fill="none" xmlns="http://www.w3.org/2000/svg">
<path d="M5.59995 0.400391C4.96343 0.400391 4.35298 0.653247 3.90289 1.10333C3.45281 1.55342 3.19995 2.16387 3.19995 2.80039V14.8004C3.19995 15.4369 3.45281 16.0474 3.90289 16.4974C4.35298 16.9475 4.96343 17.2004 5.59995 17.2004H12.8C13.4365 17.2004 14.0469 16.9475 14.497 16.4974C14.9471 16.0474 15.2 15.4369 15.2 14.8004V2.80039C15.2 2.16387 14.9471 1.55342 14.497 1.10333C14.0469 0.653247 13.4365 0.400391 12.8 0.400391H5.59995ZM4.39995 2.80039C4.39995 2.48213 4.52638 2.17691 4.75142 1.95186C4.97647 1.72682 5.28169 1.60039 5.59995 1.60039H12.8C13.1182 1.60039 13.4234 1.72682 13.6485 1.95186C13.8735 2.17691 14 2.48213 14 2.80039V14.8004C14 15.1187 13.8735 15.4239 13.6485 15.6489C13.4234 15.874 13.1182 16.0004 12.8 16.0004H5.59995C5.28169 16.0004 4.97647 15.874 4.75142 15.6489C4.52638 15.4239 4.39995 15.1187 4.39995 14.8004V2.80039Z" fill="black"/>
<path d="M0.800049 5.20047C0.80006 4.77919 0.91096 4.36534 1.1216 4.0005C1.33225 3.63567 1.63521 3.33271 2.00005 3.12207V15.4005C2.00005 16.1961 2.31612 16.9592 2.87873 17.5218C3.44134 18.0844 4.2044 18.4005 5.00005 18.4005H12.4784C12.2678 18.7653 11.9648 19.0683 11.6 19.2789C11.2352 19.4896 10.8213 19.6005 10.4 19.6005H5.00005C3.88614 19.6005 2.81785 19.158 2.0302 18.3703C1.24255 17.5827 0.800049 16.5144 0.800049 15.4005V5.20047Z" fill="black"/>
</svg>
