<svg width="32" height="32" viewBox="0 0 32 32" fill="none" xmlns="http://www.w3.org/2000/svg">
<path d="M30.222 10.6667H25.7776C24.3073 10.6667 23.1109 9.47028 23.1109 8.00005V1.77783H8.88867V30.2223H30.222V10.6667Z" fill="white"/>
<path d="M30.222 8.88889V8.368L24.8887 3.03467V8C24.8887 8.48889 25.2887 8.88889 25.7776 8.88889H30.222Z" fill="white"/>
<path opacity="0.64" fill-rule="evenodd" clip-rule="evenodd" d="M31.4793 7.11111L24.8891 0.520889C24.5558 0.187468 24.1037 0.000100689 23.6322 0H8.88911C7.90727 0 7.11133 0.795938 7.11133 1.77778V30.2222C7.11133 31.2041 7.90727 32 8.88911 32H30.2224C31.2043 32 32.0002 31.2041 32.0002 30.2222V8.368C32.0001 7.89654 31.8127 7.44443 31.4793 7.11111ZM30.2225 8.36806V8.88894H25.778C25.2875 8.88797 24.8901 8.49057 24.8891 8.00006V3.03472L30.2225 8.36806ZM8.88915 2.13333V29.8667C8.88915 30.063 9.04833 30.2222 9.2447 30.2222H29.8669C30.0633 30.2222 30.2225 30.063 30.2225 29.8667V10.6667H25.778C24.3053 10.6667 23.1114 9.47276 23.1114 8V1.77778H9.2447C9.04915 1.77778 8.88915 1.93778 8.88915 2.13333Z" fill="#605E5C"/>
<path d="M1.77778 26.6665H16C16.9818 26.6665 17.7778 25.8705 17.7778 24.8887V10.6664C17.7778 9.68461 16.9818 8.88867 16 8.88867H1.77778C0.795938 8.88867 0 9.68461 0 10.6664V24.8887C0 25.8705 0.795938 26.6665 1.77778 26.6665Z" fill="#107C41"/>
<path d="M6.4107 23.111L13.0009 12.4443H10.9334L4.25781 23.111H6.4107Z" fill="white"/>
<path d="M11.3297 23.111L4.74121 12.4443H6.80699L13.4808 23.111H11.3297Z" fill="white"/>
<path fill-rule="evenodd" clip-rule="evenodd" d="M26.8161 22.9012H28.4446V16.2488C28.4446 13.7119 27.2481 12.4443 24.857 12.4443C24.2038 12.459 23.5559 12.5643 22.9317 12.7572C22.2099 12.9652 21.6997 13.1821 21.4028 13.4079V15.0754C22.3894 14.2488 23.4952 13.8346 24.7183 13.8346C26.1174 13.8346 26.8161 14.695 26.8161 16.4177L23.7672 16.8443C21.5272 17.1626 20.4072 18.2666 20.4072 20.1599C20.4072 21.063 20.7041 21.7777 21.2926 22.311C21.881 22.8443 22.6686 23.111 23.6463 23.111C25.0223 23.111 26.0677 22.4994 26.7752 21.2746H26.8161V22.9012ZM24.3521 18.0656L26.8161 17.719V18.7305C26.8161 19.5856 26.5512 20.2985 26.025 20.8674C25.5005 21.4363 24.8321 21.7207 24.025 21.7207C23.4543 21.7207 22.9867 21.5678 22.6223 21.2603C22.2579 20.951 22.0765 20.5421 22.0765 20.0336C22.0765 19.4025 22.2454 18.9492 22.5832 18.6665C22.921 18.3856 23.5112 18.1847 24.3521 18.0656Z" fill="#33C481"/>
</svg>
