<svg width="38" height="33" viewBox="0 0 38 33" fill="none" xmlns="http://www.w3.org/2000/svg">
<path d="M34.125 5.65625H28.2812L26.8891 1.75469C26.7929 1.48771 26.6166 1.25695 26.3844 1.0939C26.1521 0.930862 25.8752 0.8435 25.5914 0.843751H12.4086C11.8285 0.843751 11.3086 1.20898 11.1152 1.75469L9.71875 5.65625H3.875C1.97578 5.65625 0.4375 7.19453 0.4375 9.09375V28.6875C0.4375 30.5867 1.97578 32.125 3.875 32.125H34.125C36.0242 32.125 37.5625 30.5867 37.5625 28.6875V9.09375C37.5625 7.19453 36.0242 5.65625 34.125 5.65625ZM34.4688 28.6875C34.4688 28.8766 34.3141 29.0312 34.125 29.0312H3.875C3.68594 29.0312 3.53125 28.8766 3.53125 28.6875V9.09375C3.53125 8.90469 3.68594 8.75 3.875 8.75H11.8973L12.632 6.69609L13.616 3.9375H24.3797L25.3637 6.69609L26.0984 8.75H34.125C34.3141 8.75 34.4688 8.90469 34.4688 9.09375V28.6875ZM19 11.5C15.2016 11.5 12.125 14.5766 12.125 18.375C12.125 22.1734 15.2016 25.25 19 25.25C22.7984 25.25 25.875 22.1734 25.875 18.375C25.875 14.5766 22.7984 11.5 19 11.5ZM19 22.5C16.7227 22.5 14.875 20.6523 14.875 18.375C14.875 16.0977 16.7227 14.25 19 14.25C21.2773 14.25 23.125 16.0977 23.125 18.375C23.125 20.6523 21.2773 22.5 19 22.5Z" fill="black"/>
</svg>
