<svg width="29" height="32" viewBox="0 0 29 32" fill="none" xmlns="http://www.w3.org/2000/svg">
<path d="M24.889 10.6667H20.4446C18.9743 10.6667 17.7779 9.47028 17.7779 8.00005V1.77783H3.55566V30.2223H24.889V10.6667Z" fill="white"/>
<path d="M24.889 8.88889V8.368L19.5557 3.03467V8C19.5557 8.48889 19.9557 8.88889 20.4446 8.88889H24.889Z" fill="white"/>
<path opacity="0.64" fill-rule="evenodd" clip-rule="evenodd" d="M26.1453 7.11111L19.5551 0.520889C19.2218 0.187468 18.7697 0.000100689 18.2982 0H3.55512C2.57328 0 1.77734 0.795938 1.77734 1.77778V30.2222C1.77734 31.2041 2.57328 32 3.55512 32H24.8885C25.8703 32 26.6662 31.2041 26.6662 30.2222V8.368C26.6661 7.89654 26.4788 7.44443 26.1453 7.11111ZM24.888 8.368V8.88889H20.4436C19.9531 8.88791 19.5557 8.49051 19.5547 8V3.03467L24.888 8.368ZM3.55469 2.13339V29.8667C3.55469 30.0631 3.71388 30.2223 3.91024 30.2223H24.5325C24.7288 30.2223 24.888 30.0631 24.888 29.8667V10.6667H20.4436C18.9708 10.6667 17.7769 9.47281 17.7769 8.00005V1.77783H3.91024C3.71469 1.77783 3.55469 1.93783 3.55469 2.13339Z" fill="#605E5C"/>
<path d="M22.2219 15.9999H6.2219C5.73098 15.9999 5.33301 15.602 5.33301 15.1111C5.33301 14.6201 5.73098 14.2222 6.2219 14.2222H22.2219C22.7128 14.2222 23.1108 14.6201 23.1108 15.1111C23.1108 15.602 22.7128 15.9999 22.2219 15.9999Z" fill="#C8C6C4"/>
<path fill-rule="evenodd" clip-rule="evenodd" d="M7.11111 26.6667V19.5556C7.11111 18.5738 7.90705 17.7778 8.88889 17.7778H19.5556C20.5374 17.7778 21.3333 18.5738 21.3333 19.5556V26.6667C21.3333 27.6486 20.5374 28.4445 19.5556 28.4445H8.88889C7.90705 28.4445 7.11111 27.6486 7.11111 26.6667ZM9.2442 26.6668H19.1891C19.283 26.6697 19.3741 26.6342 19.4412 26.5684C19.5083 26.5027 19.5457 26.4123 19.5446 26.3184C19.534 25.1131 19.5482 21.1059 19.5553 19.9006C19.5553 19.7051 19.3953 19.5557 19.1998 19.5557H9.2442C9.04865 19.5557 8.88865 19.7157 8.88865 19.9113V26.3113C8.88865 26.5076 9.04783 26.6668 9.2442 26.6668ZM4.88889 26.6667H1.77778C0.795938 26.6667 0 25.8708 0 24.8889V21.3334C0 20.3515 0.795938 19.5556 1.77778 19.5556H4.88889C5.13435 19.5556 5.33333 19.7546 5.33333 20.0001V26.2223C5.33333 26.4677 5.13435 26.6667 4.88889 26.6667ZM23.5556 26.6667H26.6667C27.6485 26.6667 28.4444 25.8708 28.4444 24.8889V21.3334C28.4444 20.3515 27.6485 19.5556 26.6667 19.5556H23.5556C23.3101 19.5556 23.1111 19.7546 23.1111 20.0001V26.2223C23.1111 26.4677 23.3101 26.6667 23.5556 26.6667Z" fill="#D65532"/>
</svg>
