<svg width="7" height="12" viewBox="0 0 7 12" fill="none" xmlns="http://www.w3.org/2000/svg">
<path d="M1.47478 0.168227C1.59928 0.167804 1.72229 0.19528 1.83477 0.248637C1.94725 0.301994 2.04635 0.379877 2.12478 0.476561L6.14978 5.47656C6.27235 5.62567 6.33936 5.81271 6.33936 6.00573C6.33936 6.19875 6.27235 6.38578 6.14978 6.53489L1.98312 11.5349C1.84167 11.7051 1.63841 11.8121 1.41805 11.8324C1.1977 11.8527 0.978296 11.7847 0.808115 11.6432C0.637935 11.5018 0.530915 11.2985 0.510599 11.0782C0.490282 10.8578 0.558333 10.6384 0.699782 10.4682L4.42478 6.00156L0.824783 1.53489C0.72288 1.41257 0.658149 1.26362 0.638249 1.10567C0.61835 0.947707 0.644114 0.787354 0.712494 0.643581C0.780874 0.499808 0.889007 0.378632 1.0241 0.29439C1.15919 0.210148 1.31559 0.166367 1.47478 0.168227Z" fill="black"/>
</svg>
