<svg width="18" height="18" viewBox="0 0 18 18" fill="none" xmlns="http://www.w3.org/2000/svg">
<path d="M9.67917 9.16411L3.40251 10.2099C3.33034 10.222 3.26263 10.2528 3.20616 10.2993C3.14969 10.3459 3.10647 10.4064 3.08084 10.4749L0.916672 16.2733C0.710006 16.8066 1.26751 17.3149 1.77917 17.0583L16.7792 9.55827C16.8828 9.50631 16.97 9.42653 17.0309 9.32785C17.0919 9.22917 17.1241 9.11549 17.1241 8.99952C17.1241 8.88356 17.0919 8.76987 17.0309 8.6712C16.97 8.57252 16.8828 8.49274 16.7792 8.44077L1.77917 0.940774C1.26751 0.68494 0.710006 1.19327 0.916672 1.72577L3.08167 7.52411C3.1073 7.59263 3.15053 7.6532 3.20699 7.69971C3.26346 7.74623 3.33118 7.77706 3.40334 7.78911L9.68001 8.83494C9.71916 8.84119 9.7548 8.86119 9.78054 8.89136C9.80627 8.92152 9.8204 8.95987 9.8204 8.99952C9.8204 9.03917 9.80627 9.07752 9.78054 9.10769C9.7548 9.13785 9.71916 9.15786 9.68001 9.16411H9.67917Z" fill="black"/>
</svg>
