<svg width="24" height="24" viewBox="0 0 24 24" fill="none" xmlns="http://www.w3.org/2000/svg">
<g clip-path="url(#clip0_1837_145)">
<path d="M12 22.853C12.42 22.8433 12.823 22.6855 13.1378 22.4073C13.4525 22.1291 13.6588 21.7486 13.72 21.333H10.2134C10.2764 21.7599 10.4923 22.1493 10.8209 22.4289C11.1496 22.7085 11.5686 22.8592 12 22.853Z" fill="white"/>
<path d="M21.8999 18.7536L21.6732 18.5536C21.0302 17.9807 20.4673 17.3236 19.9999 16.6003C19.4894 15.602 19.1834 14.5117 19.0999 13.3936V10.1003C19.0972 9.70023 19.0615 9.3011 18.9932 8.90693C17.8639 8.67482 16.8496 8.05961 16.1219 7.16545C15.3942 6.27129 14.9978 5.15312 14.9999 4.00026V3.58026C14.3038 3.23772 13.556 3.01247 12.7865 2.91359V2.07359C12.7865 1.83755 12.6928 1.61118 12.5259 1.44427C12.359 1.27736 12.1326 1.18359 11.8965 1.18359C11.6605 1.18359 11.4341 1.27736 11.2672 1.44427C11.1003 1.61118 11.0065 1.83755 11.0065 2.07359V2.94693C9.28368 3.18996 7.70692 4.04809 6.56735 5.36288C5.42778 6.67767 4.80236 8.36035 4.80654 10.1003V13.3936C4.72304 14.5117 4.41705 15.602 3.90654 16.6003C3.44712 17.3218 2.89333 17.9788 2.25987 18.5536L2.0332 18.7536V20.6336H21.8999V18.7536Z" fill="white"/>
<path d="M19.9998 7.33366C21.8408 7.33366 23.3332 5.84127 23.3332 4.00033C23.3332 2.15938 21.8408 0.666992 19.9998 0.666992C18.1589 0.666992 16.6665 2.15938 16.6665 4.00033C16.6665 5.84127 18.1589 7.33366 19.9998 7.33366Z" fill="white"/>
</g>
<defs>
<clipPath id="clip0_1837_145">
<rect width="24" height="24" fill="white"/>
</clipPath>
</defs>
</svg>
