<svg width="16" height="16" viewBox="0 0 16 16" fill="none" xmlns="http://www.w3.org/2000/svg">
<circle cx="8" cy="8" r="7.625" fill="#D9D9D9" stroke="white" stroke-width="0.75"/>
<path d="M12.0741 5.23077H10.5L10.125 4.23297C10.0991 4.16469 10.0516 4.10567 9.98905 4.06398C9.92649 4.02228 9.8519 3.99994 9.77546 4H6.22454C6.06829 4 5.92824 4.09341 5.87616 4.23297L5.5 5.23077H3.92593C3.41435 5.23077 3 5.62418 3 6.10989V11.1209C3 11.6066 3.41435 12 3.92593 12H12.0741C12.5856 12 13 11.6066 13 11.1209V6.10989C13 5.62418 12.5856 5.23077 12.0741 5.23077ZM8 10.2418C6.97685 10.2418 6.14815 9.45495 6.14815 8.48352C6.14815 7.51209 6.97685 6.72527 8 6.72527C9.02315 6.72527 9.85185 7.51209 9.85185 8.48352C9.85185 9.45495 9.02315 10.2418 8 10.2418ZM6.88889 8.48352C6.88889 8.76331 7.00595 9.03163 7.21433 9.22948C7.4227 9.42732 7.70531 9.53846 8 9.53846C8.29468 9.53846 8.5773 9.42732 8.78567 9.22948C8.99405 9.03163 9.11111 8.76331 9.11111 8.48352C9.11111 8.20373 8.99405 7.9354 8.78567 7.73756C8.5773 7.53972 8.29468 7.42857 8 7.42857C7.70531 7.42857 7.4227 7.53972 7.21433 7.73756C7.00595 7.9354 6.88889 8.20373 6.88889 8.48352Z" fill="black"/>
</svg>
