<svg width="20" height="20" viewBox="0 0 20 20" fill="none" xmlns="http://www.w3.org/2000/svg">
<circle cx="10" cy="10" r="9.41667" fill="#D9D9D9" stroke="white" stroke-width="1.16667"/>
<path d="M15.0926 5.52514H13.125L12.6562 4.29977C12.6239 4.21592 12.5645 4.14344 12.4863 4.09224C12.4081 4.04103 12.3149 4.01359 12.2193 4.01367H7.78067C7.58536 4.01367 7.4103 4.12838 7.3452 4.29977L6.875 5.52514H4.90741C4.26794 5.52514 3.75 6.00827 3.75 6.60477V12.7586C3.75 13.3551 4.26794 13.8382 4.90741 13.8382H15.0926C15.7321 13.8382 16.25 13.3551 16.25 12.7586V6.60477C16.25 6.00827 15.7321 5.52514 15.0926 5.52514ZM10 11.679C8.72106 11.679 7.68519 10.7127 7.68519 9.51975C7.68519 8.32676 8.72106 7.3605 10 7.3605C11.2789 7.3605 12.3148 8.32676 12.3148 9.51975C12.3148 10.7127 11.2789 11.679 10 11.679ZM8.61111 9.51975C8.61111 9.86335 8.75744 10.1929 9.01791 10.4358C9.27837 10.6788 9.63164 10.8153 10 10.8153C10.3684 10.8153 10.7216 10.6788 10.9821 10.4358C11.2426 10.1929 11.3889 9.86335 11.3889 9.51975C11.3889 9.17614 11.2426 8.84662 10.9821 8.60366C10.7216 8.36069 10.3684 8.2242 10 8.2242C9.63164 8.2242 9.27837 8.36069 9.01791 8.60366C8.75744 8.84662 8.61111 9.17614 8.61111 9.51975Z" fill="black"/>
</svg>
