<svg width="70" height="70" viewBox="0 0 70 70" fill="none" xmlns="http://www.w3.org/2000/svg">
<path d="M61.9167 57.3246C65.5096 53.0053 68.0085 47.8849 69.202 42.3966C70.3954 36.9083 70.2484 31.2135 68.7733 25.7939C67.2982 20.3744 64.5385 15.3896 60.7275 11.2611C56.9165 7.1327 52.1665 3.98211 46.8792 2.07588C41.5918 0.16966 35.9228 -0.436113 30.3516 0.309807C24.7804 1.05573 19.471 3.1314 14.8724 6.36123C10.2739 9.59106 6.52153 13.88 3.93279 18.8653C1.34405 23.8506 -0.00490999 29.3855 1.34287e-05 35.0019C0.00190271 43.1665 2.88143 51.0697 8.13332 57.3246L8.08329 57.367C8.25841 57.577 8.45856 57.757 8.63868 57.9645C8.86384 58.222 9.10652 58.4644 9.33918 58.7144C10.0397 59.4743 10.7602 60.2042 11.5157 60.8892C11.7459 61.0992 11.9836 61.2941 12.2162 61.4941C13.0168 62.184 13.8399 62.839 14.693 63.4489C14.8031 63.5239 14.9032 63.6214 15.0132 63.6989V63.6689C20.8727 67.7889 27.8627 70 35.0275 70C42.1924 70 49.1824 67.7889 55.0418 63.6689V63.6989C55.1519 63.6214 55.2495 63.5239 55.3621 63.4489C56.2127 62.8365 57.0383 62.184 57.8388 61.4941C58.0715 61.2941 58.3092 61.0967 58.5393 60.8892C59.2949 60.2017 60.0154 59.4743 60.7159 58.7144C60.9485 58.4644 61.1887 58.222 61.4164 57.9645C61.594 57.757 61.7967 57.577 61.9718 57.3645L61.9167 57.3246ZM35.025 15.004C37.2517 15.004 39.4283 15.6638 41.2797 16.8998C43.131 18.1358 44.574 19.8927 45.4261 21.9481C46.2782 24.0036 46.5011 26.2653 46.0668 28.4474C45.6324 30.6294 44.5601 32.6338 42.9857 34.207C41.4112 35.7801 39.4052 36.8515 37.2214 37.2855C35.0375 37.7196 32.7739 37.4968 30.7168 36.6454C28.6596 35.794 26.9014 34.3522 25.6643 32.5024C24.4273 30.6525 23.767 28.4777 23.767 26.2529C23.767 23.2695 24.9531 20.4083 27.0644 18.2987C29.1757 16.1892 32.0392 15.004 35.025 15.004ZM15.0282 57.3246C15.0716 54.0423 16.4066 50.9091 18.7443 48.6028C21.082 46.2965 24.2345 45.0025 27.5197 45.0009H42.5304C45.8156 45.0025 48.9681 46.2965 51.3058 48.6028C53.6435 50.9091 54.9784 54.0423 55.0218 57.3246C49.535 62.2649 42.411 64.9989 35.025 64.9989C27.6391 64.9989 20.5151 62.2649 15.0282 57.3246Z" fill="black"/>
</svg>
