<svg width="7" height="12" viewBox="0 0 7 12" fill="none" xmlns="http://www.w3.org/2000/svg">
<path d="M6.83889 2.06816V1.0329C6.83889 0.943164 6.73576 0.893611 6.66612 0.948522L0.628619 5.66415C0.577322 5.70404 0.535814 5.75512 0.507262 5.8135C0.47871 5.87187 0.463867 5.93599 0.463867 6.00098C0.463867 6.06596 0.47871 6.13008 0.507262 6.18846C0.535814 6.24683 0.577322 6.29791 0.628619 6.33781L6.66612 11.0534C6.7371 11.1083 6.83889 11.0588 6.83889 10.9691V9.93379C6.83889 9.86816 6.80808 9.80522 6.75719 9.76504L1.93576 6.00165L6.75719 2.23691C6.80808 2.19674 6.83889 2.13379 6.83889 2.06816Z" fill="black"/>
</svg>
