<svg width="21" height="20" viewBox="0 0 21 20" fill="none" xmlns="http://www.w3.org/2000/svg">
<circle cx="10.1875" cy="9.95312" r="9.41211" fill="#D9D9D9" stroke="white" stroke-width="0.925781"/>
<path d="M16.0926 7.28846H14.125L13.6562 6.04121C13.6239 5.95586 13.5645 5.88209 13.4863 5.82997C13.4081 5.77785 13.3149 5.74992 13.2193 5.75H8.78067C8.58536 5.75 8.4103 5.86676 8.3452 6.04121L7.875 7.28846H5.90741C5.26794 7.28846 4.75 7.78022 4.75 8.38736V14.6511C4.75 15.2582 5.26794 15.75 5.90741 15.75H16.0926C16.7321 15.75 17.25 15.2582 17.25 14.6511V8.38736C17.25 7.78022 16.7321 7.28846 16.0926 7.28846ZM11 13.5522C9.72106 13.5522 8.68519 12.5687 8.68519 11.3544C8.68519 10.1401 9.72106 9.15659 11 9.15659C12.2789 9.15659 13.3148 10.1401 13.3148 11.3544C13.3148 12.5687 12.2789 13.5522 11 13.5522ZM9.61111 11.3544C9.61111 11.7041 9.75744 12.0395 10.0179 12.2868C10.2784 12.5341 10.6316 12.6731 11 12.6731C11.3684 12.6731 11.7216 12.5341 11.9821 12.2868C12.2426 12.0395 12.3889 11.7041 12.3889 11.3544C12.3889 11.0047 12.2426 10.6692 11.9821 10.4219C11.7216 10.1746 11.3684 10.0357 11 10.0357C10.6316 10.0357 10.2784 10.1746 10.0179 10.4219C9.75744 10.6692 9.61111 11.0047 9.61111 11.3544Z" fill="black"/>
</svg>
