<svg width="7" height="12" viewBox="0 0 7 12" fill="none" xmlns="http://www.w3.org/2000/svg">
<path d="M6.39777 5.66403L0.360269 0.948409C0.344493 0.935989 0.325533 0.928271 0.305568 0.92614C0.285603 0.924009 0.265441 0.927553 0.247399 0.936364C0.229357 0.945175 0.214166 0.958897 0.203571 0.975952C0.192976 0.993008 0.187406 1.01271 0.187501 1.03278V2.06805C0.187501 2.13368 0.218305 2.19662 0.269198 2.2368L5.09063 6.00153L0.269198 9.76627C0.216966 9.80645 0.187501 9.86939 0.187501 9.93502V10.9703C0.187501 11.06 0.290626 11.1096 0.360269 11.0547L6.39777 6.33904C6.44908 6.29901 6.4906 6.2478 6.51915 6.18932C6.5477 6.13084 6.56254 6.06662 6.56254 6.00153C6.56254 5.93645 6.5477 5.87223 6.51915 5.81375C6.4906 5.75526 6.44908 5.70406 6.39777 5.66403Z" fill="black"/>
</svg>
