<svg width="62" height="64" viewBox="0 0 62 64" fill="none" xmlns="http://www.w3.org/2000/svg">
<g clip-path="url(#clip0_4639_66)">
<path d="M29.1329 0.0415039C30.2938 0.0415039 31.4564 0.0415039 32.6173 0.0415039C33.3758 0.186648 34.1408 0.301761 34.8909 0.483608C43.1089 2.47391 48.5793 9.56259 48.4163 18.041C48.4046 18.6049 48.5477 18.715 49.0816 18.7083C51.5282 18.6783 53.9764 18.69 56.4247 18.6966C59.7395 18.705 61.9549 20.9255 61.9566 24.2605C61.9616 35.6401 61.9616 47.0213 61.9566 58.4009C61.9549 61.7292 59.7279 63.9564 56.4181 63.9564C39.4715 63.9581 22.5265 63.9581 5.57995 63.9564C2.2718 63.9564 0.0464048 61.7259 0.0447416 58.3976C0.0397519 47.018 0.0430784 35.6367 0.0430784 24.2571C0.0430784 23.7366 0.0780061 23.2178 0.206074 22.7106C0.824794 20.2598 2.83563 18.7133 5.45355 18.6983C8.00493 18.6833 10.5563 18.6866 13.1077 18.7033C13.4853 18.705 13.6017 18.6216 13.5834 18.2262C13.5418 17.3119 13.5767 16.3994 13.6782 15.4868C14.4799 8.27465 19.9502 2.12356 26.989 0.513638C27.7025 0.348474 28.446 0.320113 29.1329 0.0415039ZM30.9325 61.9578C39.4332 61.9578 47.9339 61.9544 56.433 61.9628C57.1782 61.9628 57.8634 61.8176 58.5037 61.4239C58.8929 61.1853 58.9561 61.0252 58.5852 60.6548C52.5477 54.6239 46.5235 48.5795 40.5077 42.5252C40.2 42.2149 40.042 42.2182 39.7409 42.5269C38.0411 44.2619 36.3197 45.977 34.6015 47.6953C32.4543 49.8425 29.7217 49.8374 27.5678 47.6837C25.8364 45.9503 24.0966 44.2236 22.3868 42.4702C22.0442 42.1181 21.8746 42.1415 21.5386 42.4785C16.1115 47.9456 10.6678 53.3976 5.22901 58.853C4.58368 59.5003 3.94833 60.1577 3.28803 60.7883C3.04852 61.0168 3.09343 61.142 3.33127 61.3121C3.99823 61.7876 4.7367 61.9661 5.55168 61.9661C14.0142 61.9544 22.4733 61.9578 30.9325 61.9578ZM30.9641 33.0275C39.5264 33.0342 46.4321 26.1407 46.442 17.5755C46.4537 9.02373 39.5812 2.0635 31.0988 2.03848C22.4949 2.01346 15.561 8.93864 15.5543 17.5672C15.5477 26.0923 22.455 33.0208 30.9641 33.0275ZM58.2177 21.0757C57.6705 20.762 57.0667 20.6953 56.4463 20.6953C53.875 20.6953 51.3036 20.707 48.7323 20.6853C48.2999 20.6819 48.1302 20.7954 48.0387 21.2358C46.1926 30.193 37.3974 36.2674 28.3611 34.8476C21.1743 33.7182 15.5027 28.3412 13.9443 21.1691C13.8711 20.8337 13.7597 20.6853 13.3821 20.6869C10.7077 20.7036 8.03154 20.6903 5.35708 20.7019C4.8498 20.7036 4.3342 20.7403 3.8818 21.0623C3.93669 21.1307 3.96995 21.1824 4.01319 21.2258C12.3992 29.6391 20.7868 38.0525 29.1744 46.4658C29.8763 47.1698 30.7196 47.4067 31.6793 47.2215C32.3163 47.0981 32.7903 46.701 33.2377 46.2522C41.4607 37.9991 49.687 29.7476 57.91 21.4944C58.0231 21.3776 58.1827 21.2959 58.2177 21.0757ZM2.20361 59.2468C2.38323 58.9865 2.47804 58.793 2.62108 58.6495C8.454 52.792 14.2869 46.9346 20.1382 41.0938C20.5124 40.7201 20.4791 40.5516 20.1265 40.1996C14.3501 34.4305 8.59039 28.6465 2.82565 22.8691C2.69925 22.7423 2.60611 22.5671 2.39321 22.5254C2.07055 23.091 2.03728 23.7099 2.03728 24.3355C2.03728 35.6517 2.03728 46.9696 2.03895 58.2858C2.03895 58.5311 1.99404 58.783 2.20361 59.2468ZM59.6547 22.5972C59.4701 22.7707 59.332 22.8908 59.204 23.0192C53.4575 28.7816 47.7161 34.5507 41.9547 40.2997C41.5688 40.6851 41.6287 40.8519 41.9779 41.2006C47.7942 47.0113 53.5956 52.8371 59.4019 58.6578C59.5433 58.7997 59.6514 58.9898 59.8826 59.0549C59.994 58.8364 59.9624 58.6061 59.9624 58.3809C59.9641 47.0063 59.9641 35.6334 59.9641 24.2588C59.9641 23.7183 59.9125 23.1861 59.6547 22.5972Z" fill="#040404" stroke="black" stroke-width="0.5" stroke-miterlimit="10"/>
<path d="M35.1174 19.6476C35.1174 22.1384 35.1174 24.5658 35.1174 26.9948C35.1174 27.5571 35.129 28.1176 35.1124 28.6798C35.0941 29.3105 34.7398 29.7209 34.1211 29.7275C32.0487 29.7492 29.9747 29.7509 27.9023 29.7292C27.2137 29.7225 26.8828 29.2971 26.8828 28.5197C26.8794 25.5884 26.8811 22.6572 26.8811 19.6492C26.0744 19.9512 25.3027 20.2281 24.5409 20.5268C24.042 20.722 23.5663 20.7837 23.1754 20.3366C22.7813 19.8845 22.9293 19.4273 23.1804 18.9552C25.459 14.676 27.731 10.3917 30.0013 6.1075C30.2175 5.69876 30.4803 5.38178 30.9876 5.37511C31.4916 5.36844 31.771 5.66873 31.9889 6.08081C34.2758 10.4034 36.5644 14.7244 38.8613 19.042C39.1108 19.5108 39.1773 19.9479 38.7998 20.3599C38.4422 20.7503 38.0064 20.732 37.5424 20.5535C36.7557 20.2482 35.964 19.9612 35.1174 19.6476ZM26.1593 17.6039C26.5534 17.739 26.8545 17.5038 27.1705 17.3887C28.2998 16.9766 28.872 17.3703 28.8736 18.5848C28.8753 21.4527 28.882 24.3222 28.8653 27.19C28.862 27.6088 28.9435 27.7656 29.3992 27.7506C30.4554 27.7139 31.5132 27.7089 32.5693 27.7523C33.0567 27.7723 33.1415 27.6121 33.1382 27.1617C33.1165 24.439 33.1814 21.7146 33.1065 18.9936C33.0616 17.347 33.7219 16.8131 35.2072 17.5255C35.3635 17.6005 35.5698 17.769 35.7145 17.5889C35.8492 17.4204 35.648 17.2435 35.5665 17.0884C34.1244 14.359 32.6774 11.633 31.2271 8.90861C31.1672 8.79683 31.1589 8.61164 30.9327 8.61331C29.3443 11.5996 27.7543 14.5976 26.1593 17.6039Z" fill="#040404" stroke="black" stroke-width="0.5" stroke-miterlimit="10"/>
</g>
<defs>
<clipPath id="clip0_4639_66">
<rect width="62" height="64" fill="white"/>
</clipPath>
</defs>
</svg>
