<svg width="22" height="31" viewBox="0 0 22 31" fill="none" xmlns="http://www.w3.org/2000/svg">
<path d="M10.9923 30.088C7.60568 30.088 4.22002 30.088 0.833404 30.088C0.166883 30.088 0.000976562 29.923 0.000976562 29.2594C0.000976562 28.0662 0.000976562 26.873 0.000976562 25.6799C0.000976563 22.735 1.69863 20.4818 4.52193 19.6773C5.61865 19.3648 6.71248 19.0407 7.81402 18.7455C8.05227 18.6819 8.08314 18.5748 8.10918 18.3559C8.16416 17.9064 7.98668 17.6585 7.61822 17.4029C6.48195 16.6119 5.74212 15.519 5.39584 14.1735C5.34472 13.9748 5.28298 13.8918 5.05341 13.8744C4.16794 13.8079 3.50527 13.3652 3.12137 12.5636C2.73651 11.7591 2.82043 10.9701 3.33358 10.2428C3.43968 10.0924 3.47248 9.95056 3.47248 9.7779C3.46862 8.46415 3.46765 7.1504 3.47151 5.83665C3.48212 2.57157 6.03053 0.0164152 9.28886 0.00387577C10.6026 -0.000947095 11.9164 1.74793e-05 13.2291 0.00387577C14.6123 0.00773407 15.684 0.79772 16.0814 2.11629C16.1373 2.30149 16.2193 2.37866 16.4016 2.43364C17.7173 2.83008 18.5063 3.90365 18.5102 5.28974C18.514 6.77229 18.5131 8.25484 18.5083 9.73739C18.5073 9.93609 18.5449 10.0991 18.6636 10.2698C19.1642 10.9904 19.2375 11.7688 18.8603 12.5607C18.4774 13.3642 17.8157 13.806 16.9312 13.8764C16.7064 13.8937 16.637 13.968 16.5849 14.1715C16.2058 15.6348 15.3676 16.7759 14.1021 17.5929C13.697 17.8543 13.9304 18.2199 13.8947 18.5353C13.8687 18.7677 14.1329 18.7214 14.2728 18.7648C15.6039 19.1729 16.99 19.4256 18.27 19.9725C20.6313 20.9805 21.865 22.8315 21.9701 25.3924C22.0241 26.7158 21.9817 28.0431 21.9798 29.3694C21.9788 29.8854 21.7753 30.0889 21.2563 30.0889C17.8369 30.088 14.4146 30.088 10.9923 30.088ZM4.60682 9.38532C4.82867 9.20591 5.12093 9.41812 5.22704 9.10752C5.33603 8.78825 5.57235 8.67539 5.89838 8.67829C6.92179 8.68504 7.94521 8.69372 8.96862 8.67829C10.6952 8.65224 11.9434 7.85358 12.7015 6.30254C13.0044 5.68329 13.3709 5.6148 13.8658 6.10866C14.7011 6.94206 15.5354 7.77738 16.3688 8.6127C16.5289 8.77378 16.69 8.92618 16.774 9.15479C16.8569 9.3776 17.1077 9.28115 17.2736 9.30912C17.4164 9.3342 17.3479 9.14321 17.3479 9.0564C17.3546 7.79184 17.3566 6.52729 17.3508 5.26273C17.3459 4.26922 16.6717 3.55158 15.6878 3.47634C15.2393 3.44258 15.0705 3.27378 15.0368 2.82525C14.9615 1.84139 14.2429 1.16522 13.2513 1.16136C11.8903 1.15558 10.5303 1.14979 9.16925 1.16329C7.09349 1.18451 5.22993 2.64874 4.77465 4.67724C4.43319 6.20801 4.71581 7.77159 4.60682 9.38532ZM13.4857 7.37804C13.4684 7.38672 13.4549 7.39058 13.4471 7.3983C13.423 7.42434 13.3979 7.45039 13.3787 7.48029C12.28 9.08823 10.7492 9.857 8.80946 9.83867C8.07446 9.83192 7.33945 9.83674 6.60445 9.83867C6.49642 9.83867 6.35462 9.78658 6.36138 9.9959C6.39803 11.1505 6.27071 12.3118 6.43179 13.4606C6.74142 15.6714 8.73037 17.3575 10.9913 17.3575C13.2533 17.3575 15.2499 15.6686 15.5489 13.4606C15.7206 12.1913 15.5837 10.9093 15.6203 9.63418C15.6232 9.52615 15.5769 9.4567 15.5046 9.38628C14.8303 8.7188 14.158 8.04746 13.4857 7.37804ZM15.301 28.9295C15.8914 28.9295 16.4817 28.916 17.071 28.9363C17.3189 28.945 17.3662 28.8601 17.3604 28.6344C17.345 28.0566 17.3556 27.4788 17.3556 26.901C17.3556 26.0126 17.3556 26.0204 18.2633 26.0319C18.4716 26.0348 18.5208 26.0956 18.5179 26.2943C18.5073 27.0891 18.5208 27.8839 18.5083 28.6787C18.5054 28.8851 18.5661 28.9401 18.7677 28.9353C19.3696 28.9218 19.9715 28.9218 20.5734 28.9353C20.7789 28.9401 20.8329 28.8794 20.8309 28.6758C20.8203 27.5685 20.8464 26.4602 20.8184 25.3529C20.7846 23.9745 20.231 22.8218 19.2163 21.8852C18.4272 21.156 17.4443 20.857 16.4402 20.5888C16.2309 20.5329 16.1132 20.5705 15.9714 20.7152C15.2625 21.4367 14.5429 22.1476 13.8301 22.8643C13.7095 22.9848 13.5831 23.1344 13.4143 23.1266C13.1587 23.1131 13.016 23.198 12.9369 23.4392C12.8713 23.6388 12.7285 23.7999 12.7555 24.0439C12.9234 25.5873 13.0777 27.1315 13.2234 28.6768C13.2417 28.8745 13.2928 28.9401 13.4954 28.9353C14.0973 28.9218 14.6992 28.9295 15.301 28.9295ZM6.66039 28.9295C7.27483 28.9295 7.8883 28.9276 8.50273 28.9314C8.64838 28.9324 8.73809 28.9276 8.75641 28.7318C8.90592 27.1508 9.07183 25.5709 9.22809 23.9909C9.26474 23.6263 8.93679 23.198 8.59051 23.1382C8.41592 23.1083 8.28956 23.0003 8.16802 22.8787C7.65005 22.3579 7.07516 21.8823 6.6247 21.3084C6.07586 20.6101 5.51737 20.5204 4.6917 20.8136C2.74615 21.5052 1.5115 22.7726 1.22116 24.8301C1.03789 26.1303 1.18837 27.4508 1.15364 28.7617C1.14882 28.9613 1.27036 28.9295 1.38707 28.9295C2.0015 28.9295 2.61497 28.9189 3.22941 28.9353C3.45512 28.9411 3.4773 28.8495 3.47344 28.6633C3.46283 28.0855 3.46958 27.5077 3.46958 26.929C3.46958 26.0088 3.46958 26.0175 4.384 26.03C4.60392 26.0329 4.63286 26.111 4.63093 26.3001C4.62128 27.0467 4.64926 27.7942 4.61743 28.5389C4.60296 28.8871 4.72353 28.9488 5.03412 28.9353C5.57621 28.9122 6.1183 28.9295 6.66039 28.9295ZM10.9614 28.9295C11.2026 28.9295 11.4456 28.9083 11.6839 28.9343C12.0167 28.972 12.1016 28.8697 12.0601 28.5292C11.927 27.4537 11.8209 26.3744 11.7234 25.295C11.6251 24.1964 11.6347 24.1983 10.5332 24.2976C10.401 24.3092 10.3509 24.3401 10.3373 24.4809C10.2013 25.8834 10.0586 27.2849 9.91197 28.6864C9.89365 28.8649 9.92258 28.9478 10.13 28.9334C10.4068 28.916 10.6846 28.9295 10.9614 28.9295ZM11.0752 23.144C11.571 23.2983 11.9598 23.0803 12.1276 22.4794C12.1305 22.4678 12.1353 22.4563 12.1411 22.4466C12.2134 22.3386 12.1855 22.2595 12.0929 22.1707C11.7649 21.8534 11.4428 21.5293 11.1244 21.2023C11.0299 21.1049 10.9643 21.0914 10.8621 21.1975C10.537 21.5341 10.2033 21.864 9.8705 22.1939C9.80587 22.2585 9.78754 22.3096 9.81937 22.409C10.0239 23.0379 10.1628 23.145 10.8245 23.145C10.8737 23.144 10.9219 23.144 11.0752 23.144ZM14.9036 20.1538C14.4233 20.0169 14.0201 19.903 13.6179 19.7854C13.5021 19.7516 13.3864 19.7024 13.2687 19.7612C12.8433 19.9725 12.4208 20.1885 11.9598 20.421C12.3784 20.8319 12.7633 21.212 13.15 21.5891C13.2224 21.6595 13.2812 21.7733 13.4095 21.6441C13.8889 21.1589 14.3751 20.6805 14.9036 20.1538ZM7.06551 20.1635C7.59314 20.6805 8.06771 21.1387 8.5336 21.6065C8.64356 21.7174 8.71204 21.7193 8.82393 21.6074C9.21362 21.2187 9.61392 20.8396 10.0403 20.4278C9.56762 20.1876 9.15285 19.9763 8.73712 19.7661C8.64452 19.7188 8.54903 19.7313 8.45547 19.7583C8.02044 19.8837 7.58638 20.0111 7.06551 20.1635ZM9.29272 18.2613C9.18275 18.5903 9.26474 18.7957 9.59656 18.9115C9.8213 18.9896 10.046 19.0966 10.237 19.2365C10.7579 19.6166 11.2518 19.6002 11.7678 19.2278C11.9501 19.0957 12.1652 18.9973 12.3784 18.9211C12.6986 18.8063 12.8009 18.6047 12.6928 18.2633C11.5624 18.6018 10.4251 18.5989 9.29272 18.2613ZM5.20678 11.5923C5.20678 11.2672 5.19617 10.9421 5.21064 10.618C5.21932 10.4232 5.14216 10.402 4.97818 10.4348C4.45441 10.5418 4.05122 11.0309 4.05122 11.573C4.05122 12.1131 4.45538 12.6041 4.97818 12.7121C5.14216 12.7459 5.22029 12.7256 5.21064 12.5298C5.19617 12.2173 5.20678 11.9048 5.20678 11.5923ZM16.7768 11.5778C16.7768 11.8903 16.7855 12.2028 16.774 12.5154C16.7672 12.6871 16.8067 12.7517 16.9929 12.716C17.5234 12.6147 17.943 12.1035 17.9324 11.5508C17.9228 11.0135 17.4974 10.5168 16.9833 10.43C16.8309 10.4039 16.7672 10.4328 16.774 10.6045C16.7855 10.9286 16.7768 11.2537 16.7768 11.5778Z" fill="#020202"/>
</svg>
