<svg width="194" height="175" viewBox="0 0 194 175" fill="none" xmlns="http://www.w3.org/2000/svg">
<g clip-path="url(#clip0_4486_2534)">
<path d="M1.44826 157.211C6.97185 147.24 11.1841 139.225 13.6134 134.551C21.7077 118.971 43.2077 82.3481 85.0473 8.4424C88.0851 3.06975 92.5096 0.248999 98.7407 0.767867C103.675 1.17824 107.25 3.81032 109.656 8.07919C113.745 15.3292 117.83 22.5792 121.911 29.8339C145.005 70.9047 168.099 111.98 191.189 153.051C194.599 159.117 194.26 164.791 190.09 169.584C187.826 172.188 184.92 173.692 181.444 173.975C180.505 174.051 179.566 174.098 178.628 174.098C124.293 174.103 69.9624 174.089 15.6275 174.126C14.4435 174.126 10.6511 174.202 7.05675 171.98C6.0426 171.353 3.39637 169.527 1.84449 166.112C1.45769 165.263 0.665242 163.471 0.707695 161.018C0.735997 159.367 1.12751 158.046 1.44826 157.211ZM97.1558 167.659C124.194 167.659 151.236 167.659 178.274 167.659C179.09 167.659 179.906 167.659 180.717 167.603C183.486 167.4 185.826 165.546 186.727 162.928C187.552 160.518 186.821 158.4 185.642 156.306C176.585 140.221 167.547 124.126 158.5 108.037C140.505 76.0179 122.5 44.0037 104.505 11.9848C103.571 10.3245 102.528 8.78674 100.755 7.91881C96.8162 5.98485 92.9718 7.46598 90.453 11.9188C73.8633 41.2113 57.2737 70.5037 40.6841 99.7962C30.0143 118.636 19.3445 137.475 8.66996 156.31C7.62751 158.15 6.86336 160.037 7.38694 162.207C8.25015 165.787 10.9388 167.659 15.2832 167.659C42.5756 167.659 69.8681 167.659 97.1558 167.659Z" fill="#A1A1A1" stroke="#A1A1A1" stroke-width="0.471698" stroke-miterlimit="10"/>
<path d="M84.3582 125.952C84.3582 123.636 84.2686 121.315 84.3724 118.999C84.679 112.06 90.4478 106.551 97.2261 106.636C104.028 106.721 109.679 112.098 109.924 118.952C110.089 123.579 110.085 128.225 109.929 132.853C109.693 139.81 103.896 145.282 97.0894 145.192C90.2497 145.103 84.6931 139.773 84.3771 132.905C84.2686 130.589 84.3582 128.268 84.3582 125.952ZM90.7497 125.961C90.7497 128.093 90.7073 130.221 90.7592 132.353C90.8535 136.051 93.6648 138.791 97.2403 138.74C100.75 138.688 103.49 135.99 103.542 132.372C103.608 128.112 103.604 123.853 103.547 119.589C103.5 115.9 100.679 113.074 97.1601 113.07C93.6412 113.065 90.8346 115.886 90.7544 119.57C90.712 121.702 90.7497 123.834 90.7497 125.961Z" fill="#A1A1A1" stroke="#A1A1A1" stroke-width="0.471698" stroke-miterlimit="10"/>
<path d="M129.368 127.451C129.368 125.956 128.787 123.989 129.519 123.098C130.396 122.027 132.457 122.933 133.981 122.716C135.401 122.518 135.816 123.027 135.726 124.442C135.594 126.503 135.764 128.579 135.665 130.645C135.603 131.909 135.915 132.565 137.287 132.334C138.57 132.117 139.136 132.593 138.952 133.947C138.858 134.621 138.891 135.329 138.943 136.013C139.075 137.739 139.188 139.376 136.58 138.819C135.811 138.654 135.669 139.22 135.684 139.871C135.712 141.187 135.613 142.508 135.712 143.819C135.806 145.032 135.32 145.253 134.207 145.263C129.273 145.301 129.217 145.338 129.278 140.518C129.297 139.117 128.948 138.687 127.528 138.763C125.155 138.89 122.769 138.843 120.386 138.786C117.316 138.716 116.037 137.168 116.688 134.173C118.641 125.192 120.688 116.235 122.618 107.253C122.858 106.135 123.287 105.985 124.231 106.22C125.504 106.541 126.787 106.838 128.075 107.065C129.061 107.239 129.146 107.659 128.934 108.598C127.254 115.909 125.684 123.244 124.009 130.56C123.693 131.928 123.853 132.409 125.419 132.376C129.231 132.291 129.236 132.371 129.236 128.588C129.236 128.211 129.236 127.838 129.236 127.461C129.287 127.456 129.325 127.456 129.368 127.451Z" fill="#A1A1A1" stroke="#A1A1A1" stroke-width="0.471698" stroke-miterlimit="10"/>
<path d="M62.9621 138.72C61.4574 138.72 59.9433 138.843 58.4574 138.692C56.2782 138.466 55.047 136.848 55.5046 134.749C57.5234 125.517 59.6272 116.31 61.6414 107.079C61.8442 106.159 62.1555 105.961 63.0046 106.183C64.6414 106.607 66.8395 106.466 67.7782 107.494C68.6555 108.456 67.4338 110.499 67.0942 112.055C65.7546 118.23 64.3914 124.404 62.9763 130.56C62.665 131.918 62.8348 132.414 64.4055 132.376C68.2074 132.286 68.2074 132.371 68.2074 128.583C68.2074 128.272 68.1885 127.956 68.2121 127.645C68.3206 126.041 67.4999 123.843 68.5706 122.994C69.5848 122.192 71.6933 122.819 73.3112 122.716C74.3584 122.65 74.7168 122.966 74.6744 124.05C74.5895 126.244 74.7121 128.442 74.6272 130.635C74.5801 131.871 74.8348 132.588 76.2357 132.333C77.7121 132.065 78.1225 132.753 77.9385 134.112C77.8489 134.791 77.8489 135.499 77.9385 136.178C78.1838 138.017 77.8442 139.239 75.5706 138.81C74.8112 138.668 74.6319 139.164 74.6461 139.843C74.6744 141.286 74.6225 142.73 74.665 144.168C74.6885 144.984 74.3819 145.333 73.5706 145.234C73.5093 145.225 73.4433 145.23 73.3819 145.234C68.2734 145.466 68.2404 145.466 68.2357 140.357C68.2357 139.201 68.0329 138.645 66.7263 138.772C65.4857 138.895 64.2216 138.8 62.9668 138.8C62.9621 138.767 62.9621 138.744 62.9621 138.72Z" fill="#A1A1A1" stroke="#A1A1A1" stroke-width="0.471698" stroke-miterlimit="10"/>
<path d="M93.915 61.5883C93.915 56.8194 93.9527 52.0505 93.8914 47.2864C93.8772 46.0647 94.047 45.4232 95.4857 45.56C97.0376 45.7109 99.132 45.0505 100.038 45.8383C101.104 46.7628 100.377 48.9043 100.387 50.5175C100.42 58.9892 100.363 67.4562 100.443 75.9279C100.457 77.4515 100.009 77.7958 98.5565 77.7722C93.9197 77.7015 93.9197 77.7581 93.9197 73.0741C93.915 69.2392 93.915 65.4137 93.915 61.5883Z" fill="#A1A1A1" stroke="#A1A1A1" stroke-width="0.471698" stroke-miterlimit="10"/>
<path d="M97.0235 90.6313C93.9009 90.6313 93.9009 90.6313 93.9009 87.4757C93.9009 84.1172 93.9009 84.1172 97.198 84.1172C100.415 84.1172 100.415 84.1172 100.415 87.3672C100.41 90.6313 100.41 90.6313 97.0235 90.6313Z" fill="#A1A1A1" stroke="#A1A1A1" stroke-width="0.471698" stroke-miterlimit="10"/>
</g>
<defs>
<clipPath id="clip0_4486_2534">
<rect width="194" height="175" fill="white"/>
</clipPath>
</defs>
</svg>
