<svg width="194" height="175" viewBox="0 0 194 175" fill="none" xmlns="http://www.w3.org/2000/svg">
<g clip-path="url(#clip0_4486_2534)">
<path d="M1.44826 157.211C6.97185 147.24 11.1841 139.225 13.6134 134.551C21.7077 118.971 43.2077 82.3481 85.0473 8.4424C88.0851 3.06975 92.5096 0.248999 98.7407 0.767867C103.675 1.17824 107.25 3.81032 109.656 8.07919C113.745 15.3292 117.83 22.5792 121.911 29.8339C145.005 70.9047 168.099 111.98 191.189 153.051C194.599 159.117 194.26 164.791 190.09 169.584C187.826 172.188 184.92 173.692 181.444 173.975C180.505 174.051 179.566 174.098 178.628 174.098C124.293 174.103 69.9624 174.089 15.6275 174.126C14.4435 174.126 10.6511 174.202 7.05675 171.98C6.0426 171.353 3.39637 169.527 1.84449 166.112C1.45769 165.263 0.665242 163.471 0.707695 161.018C0.735997 159.367 1.12751 158.046 1.44826 157.211ZM97.1558 167.659C124.194 167.659 151.236 167.659 178.274 167.659C179.09 167.659 179.906 167.659 180.717 167.603C183.486 167.4 185.826 165.546 186.727 162.928C187.552 160.518 186.821 158.4 185.642 156.306C176.585 140.221 167.547 124.126 158.5 108.037C140.505 76.0179 122.5 44.0037 104.505 11.9848C103.571 10.3245 102.528 8.78674 100.755 7.91881C96.8162 5.98485 92.9718 7.46598 90.453 11.9188C73.8633 41.2113 57.2737 70.5037 40.6841 99.7962C30.0143 118.636 19.3445 137.475 8.66996 156.31C7.62751 158.15 6.86336 160.037 7.38694 162.207C8.25015 165.787 10.9388 167.659 15.2832 167.659C42.5756 167.659 69.8681 167.659 97.1558 167.659Z" fill="#A1A1A1" stroke="#A1A1A1" stroke-width="0.471698" stroke-miterlimit="10"/>
<path d="M93.915 61.5883C93.915 56.8194 93.9527 52.0505 93.8914 47.2864C93.8772 46.0647 94.047 45.4232 95.4857 45.56C97.0376 45.7109 99.132 45.0505 100.038 45.8383C101.104 46.7628 100.377 48.9043 100.387 50.5175C100.42 58.9892 100.363 67.4562 100.443 75.9279C100.457 77.4515 100.009 77.7958 98.5565 77.7722C93.9197 77.7015 93.9197 77.7581 93.9197 73.0741C93.915 69.2392 93.915 65.4137 93.915 61.5883Z" fill="#A1A1A1" stroke="#A1A1A1" stroke-width="0.471698" stroke-miterlimit="10"/>
<path d="M97.0235 90.6313C93.9009 90.6313 93.9009 90.6313 93.9009 87.4757C93.9009 84.1172 93.9009 84.1172 97.198 84.1172C100.415 84.1172 100.415 84.1172 100.415 87.3672C100.41 90.6313 100.41 90.6313 97.0235 90.6313Z" fill="#A1A1A1" stroke="#A1A1A1" stroke-width="0.471698" stroke-miterlimit="10"/>
</g>
<defs>
<clipPath id="clip0_4486_2534">
<rect width="194" height="175" fill="white"/>
</clipPath>
</defs>
</svg>
