<svg width="42" height="43" viewBox="0 0 42 43" fill="none" xmlns="http://www.w3.org/2000/svg">
<path d="M37.1235 35.3945C39.2777 32.8026 40.7759 29.7301 41.4915 26.4368C42.2071 23.1434 42.1189 19.7262 41.2345 16.4741C40.3501 13.222 38.6954 10.2308 36.4105 7.75349C34.1255 5.27617 31.2775 3.38561 28.1074 2.24176C24.9373 1.0979 21.5383 0.734398 18.1979 1.182C14.8576 1.6296 11.6742 2.87513 8.91708 4.81324C6.15993 6.75134 3.91012 9.325 2.35799 12.3165C0.805856 15.308 -0.00294389 18.6293 8.05147e-06 21.9995C0.00114081 26.8988 1.72763 31.6411 4.87651 35.3945L4.84651 35.42C4.95151 35.546 5.07151 35.654 5.17951 35.7785C5.31451 35.933 5.46001 36.0785 5.59951 36.2285C6.01951 36.6845 6.45151 37.1225 6.90451 37.5335C7.04251 37.6595 7.18501 37.7765 7.32451 37.8965C7.80451 38.3105 8.29801 38.7035 8.80951 39.0695C8.87551 39.1145 8.93551 39.173 9.00151 39.2195V39.2015C12.5147 41.6737 16.7057 43.0006 21.0015 43.0006C25.2974 43.0006 29.4884 41.6737 33.0015 39.2015V39.2195C33.0675 39.173 33.126 39.1145 33.1935 39.0695C33.7035 38.702 34.1985 38.3105 34.6785 37.8965C34.818 37.7765 34.9605 37.658 35.0985 37.5335C35.5515 37.121 35.9835 36.6845 36.4035 36.2285C36.543 36.0785 36.687 35.933 36.8235 35.7785C36.93 35.654 37.0515 35.546 37.1565 35.4185L37.1235 35.3945ZM21 9.99948C22.335 9.99948 23.6401 10.3954 24.7501 11.1371C25.8601 11.8788 26.7253 12.933 27.2362 14.1664C27.7471 15.3998 27.8808 16.757 27.6203 18.0663C27.3599 19.3757 26.717 20.5784 25.773 21.5224C24.829 22.4665 23.6262 23.1093 22.3169 23.3698C21.0075 23.6302 19.6503 23.4966 18.4169 22.9857C17.1835 22.4748 16.1293 21.6096 15.3876 20.4996C14.6459 19.3895 14.25 18.0845 14.25 16.7495C14.25 14.9593 14.9612 13.2424 16.227 11.9765C17.4929 10.7106 19.2098 9.99948 21 9.99948ZM9.01051 35.3945C9.03653 33.4249 9.83693 31.5448 11.2385 30.1609C12.6402 28.777 14.5303 28.0005 16.5 27.9995H25.5C27.4697 28.0005 29.3599 28.777 30.7615 30.1609C32.1631 31.5448 32.9635 33.4249 32.9895 35.3945C29.6998 38.359 25.4284 39.9996 21 39.9996C16.5716 39.9996 12.3002 38.359 9.01051 35.3945Z" fill="black"/>
</svg>
