<svg width="20" height="30" viewBox="0 0 20 30" fill="none" xmlns="http://www.w3.org/2000/svg">
<g clip-path="url(#clip0_4141_162)">
<path d="M-0.644622 29.5295C-0.89962 29.3785 -0.995918 29.1582 -0.987444 28.86C-0.954317 27.7468 -1.04137 26.6313 -0.936598 25.5189C-0.728594 23.3056 1.17811 21.3727 3.39143 21.1023C3.78356 21.0545 4.17954 21.0876 4.56858 21.0013C5.45915 20.8026 6.13401 19.9968 6.17022 19.0885C6.17638 18.9329 6.13093 18.8566 5.99072 18.7795C3.84673 17.6101 2.6534 15.8097 2.43076 13.3791C2.41535 13.2104 2.3491 13.1603 2.21043 13.1095C1.40538 12.816 0.87458 12.1203 0.872269 11.276C0.868417 9.98944 0.790608 8.69904 0.919263 7.41635C1.1966 4.66221 2.34294 2.41346 4.83051 1.0075C6.30503 0.174713 7.92207 -0.0718104 9.59381 0.0321917C11.0637 0.123097 12.4789 0.459756 13.8148 1.09378C14.2608 1.30564 14.3163 1.42736 14.1576 1.89884C14.1037 2.05985 14.2269 2.02056 14.2909 2.03905C15.2454 2.31485 16.1074 2.76321 16.8609 3.41342C17.367 3.85023 17.7953 4.35329 18.1536 4.91567C18.3231 5.18222 18.3115 5.40872 18.0896 5.64754C17.4479 6.33934 17.1775 7.15673 17.1937 8.09274C17.2122 9.1112 17.1998 10.1296 17.1968 11.1481C17.1952 11.5202 16.9826 11.7436 16.6636 11.7182C16.4241 11.6989 16.2276 11.5618 16.2299 11.3322C16.2438 9.87465 16.0951 8.41168 16.3185 6.96105C16.4071 6.3848 16.6629 5.86325 17.0234 5.40487C17.1544 5.23923 17.129 5.13908 17.0119 4.99117C15.948 3.65301 14.552 2.94348 12.8603 2.78401C12.6592 2.76475 12.4589 2.74087 12.257 2.72238C11.9936 2.6985 11.8241 2.55906 11.7817 2.30098C11.7409 2.05292 11.858 1.87496 12.0868 1.77172C12.1892 1.7255 12.2925 1.68082 12.4473 1.61302C11.6584 1.33029 10.8988 1.16774 10.1238 1.07761C8.66781 0.908891 7.23797 1.01366 5.87824 1.59376C3.82901 2.46738 2.66881 4.08057 2.13108 6.18835C1.93309 6.96413 1.85066 7.75531 1.85066 8.55575C1.85066 9.42012 1.84912 10.2853 1.85066 11.1496C1.85143 11.5587 1.99703 11.8907 2.39763 12.1157C2.39763 11.4886 2.38993 10.8892 2.39917 10.2899C2.42306 8.63048 3.5093 7.28153 5.11556 6.89865C5.98917 6.69064 6.81195 6.90096 7.62625 7.18908C8.35195 7.44639 9.0245 7.81926 9.71707 8.14821C10.566 8.55112 11.4535 8.75759 12.3949 8.71984C12.4527 8.71753 12.5105 8.71676 12.5683 8.71984C12.8641 8.73525 13.0744 8.93169 13.0821 9.19902C13.0906 9.47482 12.8726 9.68513 12.5637 9.70131C11.3657 9.76371 10.2379 9.50486 9.16394 8.97792C8.32113 8.56422 7.48835 8.12972 6.56697 7.89476C4.9245 7.47644 3.3845 8.62739 3.39143 10.3199C3.39605 11.4524 3.32826 12.5879 3.4546 13.7173C3.71576 16.0531 5.76345 18.1355 8.1062 18.4591C11.2124 18.8874 13.9072 16.9815 14.515 13.923C14.5867 13.564 14.6067 13.2004 14.6059 12.8345C14.6021 11.4701 14.6021 10.1058 14.6021 8.74141C14.6021 8.41014 14.7754 8.21138 15.0674 8.19829C15.3555 8.18596 15.5813 8.3801 15.5797 8.69904C15.5697 10.3985 15.6914 12.1026 15.5242 13.7967C15.2477 16.6009 12.8148 19.0584 10.0098 19.4413C9.11232 19.5638 8.22407 19.5384 7.34968 19.2996C7.17634 19.2526 7.12627 19.2911 7.1124 19.4506C7.09468 19.6624 7.04615 19.872 6.95678 20.0615C6.8782 20.2279 6.93752 20.2957 7.07465 20.3758C7.87893 20.8465 8.73868 20.9998 9.65544 20.8496C9.70321 20.8419 9.74943 20.8303 9.79719 20.8257C10.1 20.7964 10.3311 20.9505 10.3819 21.214C10.4343 21.4867 10.2594 21.7378 9.95512 21.7979C9.20708 21.9451 8.46366 21.9258 7.72794 21.7178C7.29113 21.5945 6.87666 21.4181 6.49686 21.1708C6.37668 21.0922 6.30657 21.0999 6.20257 21.1986C5.60398 21.7671 4.88444 22.0267 4.05936 22.0414C1.8029 22.0822 0.0363997 23.8556 0.00481391 26.109C-0.00751227 27.0119 -0.00828266 27.9156 0.00789547 28.8184C0.0132881 29.1166 -0.0552762 29.3539 -0.298718 29.5311C-0.413506 29.5295 -0.529064 29.5295 -0.644622 29.5295Z" fill="#030303" stroke="black" stroke-width="0.25"/>
<path d="M18.3003 29.5301C18.0554 29.3537 17.9937 29.1157 17.993 28.8183C17.9899 27.7721 18.0623 26.7236 17.9598 25.6805C17.7603 23.6459 16.0362 22.0736 13.9762 22.0427C12.9146 22.0266 12.0579 21.6283 11.4223 20.7747C11.3545 20.6838 11.2891 20.5836 11.2521 20.4773C11.1696 20.2385 11.2467 20.0374 11.4609 19.908C11.6627 19.7855 11.8668 19.8086 12.0448 19.9689C12.101 20.0197 12.1426 20.086 12.1873 20.1484C12.6126 20.747 13.1942 21.0436 13.9276 21.0551C16.3189 21.0944 18.2865 22.6652 18.8481 24.9833C18.9459 25.3862 18.986 25.7961 18.986 26.2105C18.9868 27.0942 18.9775 27.977 18.9906 28.8607C18.9952 29.158 18.902 29.3784 18.647 29.5294C18.5315 29.5301 18.4159 29.5301 18.3003 29.5301Z" fill="#040404" stroke="black" stroke-width="0.25"/>
<path d="M13.2356 27.9871C12.996 27.9871 12.7556 27.9948 12.516 27.9848C12.221 27.9733 12.016 27.766 12.0176 27.4979C12.0184 27.246 12.2148 27.0203 12.4914 27.011C12.9991 26.9941 13.5083 26.9933 14.0167 27.011C14.3033 27.0211 14.5021 27.2684 14.4844 27.5303C14.4666 27.7899 14.2717 27.9748 13.9844 27.9848C13.7348 27.9941 13.4852 27.9871 13.2356 27.9871Z" fill="#040404" stroke="black" stroke-width="0.25"/>
</g>
<defs>
<clipPath id="clip0_4141_162">
<rect width="20" height="29.5389" fill="white"/>
</clipPath>
</defs>
</svg>
