<svg width="110" height="110" viewBox="0 0 110 110" fill="none" xmlns="http://www.w3.org/2000/svg">
<circle cx="55" cy="55" r="55" fill="#121212"/>
<path d="M69.8179 47.1783C69.8243 48.0233 69.532 48.754 68.9349 49.3449C63.7192 54.5674 58.5099 59.7899 53.2815 64.9934C52.049 66.2196 50.2003 66.245 48.9552 65.0188C46.287 62.3949 43.6442 59.7518 41.0205 57.0834C39.8134 55.8635 39.8643 53.9193 41.0459 52.7503C42.2656 51.5495 44.1778 51.5622 45.423 52.7948C46.738 54.0972 48.0404 55.4061 49.3491 56.7149C50.6704 58.0364 51.5281 58.0427 52.8304 56.7339C56.712 52.852 60.5872 48.97 64.4752 45.0944C65.9427 43.6331 68.1789 43.7983 69.2906 45.4311C69.6464 45.9648 69.8243 46.543 69.8179 47.1783Z" fill="white"/>
<path d="M50.3842 28.8937C50.4096 26.3269 52.4869 24.2747 55.0344 24.3065C57.5565 24.3383 59.6021 26.4095 59.5894 28.9318C59.5767 31.5304 57.512 33.5571 54.901 33.5317C52.3853 33.5063 50.3524 31.4287 50.3842 28.8937Z" fill="white"/>
<path d="M41.8209 37.0188C39.1782 36.9235 37.2342 34.8142 37.3485 32.1584C37.4502 29.6933 39.6292 27.7047 42.1068 27.8127C44.6607 27.927 46.6745 30.0554 46.5665 32.5333C46.4522 35.1319 44.3557 37.1141 41.8209 37.0188Z" fill="#FCFCFC"/>
<path d="M36.9993 42.0129C36.9738 44.5543 34.9219 46.5874 32.3871 46.5874C29.8332 46.5811 27.8067 44.5035 27.8194 41.9176C27.8321 39.3445 29.8904 37.3431 32.4887 37.3622C35.0108 37.3813 37.0183 39.4588 36.9993 42.0129Z" fill="#E2E7EA"/>
<path d="M28.9183 50.4317C31.4722 50.4253 33.4987 52.4457 33.4987 54.9934C33.4987 57.5666 31.4722 59.5806 28.8739 59.5743C26.3327 59.5679 24.3125 57.5285 24.3062 54.9744C24.2998 52.4711 26.3645 50.438 28.9183 50.4317Z" fill="#E2E7EA"/>
<path d="M41.9736 82.1603C39.6611 82.3318 37.3169 80.2161 37.3296 77.6112C37.3423 74.7649 39.7628 72.9669 41.9227 72.9796C44.3877 72.9986 46.5286 74.8475 46.5667 77.5604C46.6048 80.1335 44.4893 82.2492 41.9736 82.1603Z" fill="#E2E7EA"/>
<path d="M27.8254 68.0117C27.7429 65.4703 29.8393 63.4563 32.3614 63.4054C34.947 63.3546 36.9862 65.4449 36.9862 68.0562C36.9862 70.642 34.9724 72.6307 32.3804 72.6561C29.7821 72.6815 27.6603 70.3498 27.8254 68.0117Z" fill="#E2E7EA"/>
<path d="M68.0204 82.1487C65.4919 82.2758 63.3955 80.0711 63.3955 77.6314C63.3955 75.0074 65.4856 72.9362 68.103 72.9997C70.5996 73.0632 72.5817 75.0455 72.6262 77.5615C72.6707 80.0584 70.4218 82.3139 68.0204 82.1487Z" fill="#E2E7EA"/>
<path d="M81.107 59.5673C78.6357 59.6817 76.4694 57.6359 76.4567 55.0373C76.4376 52.4387 78.4515 50.4946 81.0434 50.4247C83.6672 50.3485 85.6747 52.6357 85.6937 54.9166C85.7128 57.5279 83.5719 59.6944 81.107 59.5673Z" fill="#8F8F8F"/>
<path d="M72.9876 68.0808C72.886 65.406 75.0396 63.3856 77.6315 63.4174C80.16 63.4491 82.1103 65.4505 82.1421 68.049C82.1738 70.476 80.0901 72.6426 77.5998 72.6553C74.8998 72.668 72.8542 70.3299 72.9876 68.0808Z" fill="#C2C7CA"/>
<path d="M59.558 81.0426C59.6533 83.495 57.6903 85.6615 55.0094 85.6933C52.4238 85.7251 50.4353 83.5903 50.3909 81.1506C50.3464 78.6918 52.3285 76.4999 54.9332 76.4745C57.6395 76.4427 59.6533 78.6982 59.558 81.0426Z" fill="#E2E7EA"/>
<path d="M82.1232 41.9378C82.2312 44.6507 80.0077 46.6203 77.5364 46.5695C74.8746 46.5123 72.9941 44.5427 72.9941 41.9251C72.9941 39.3837 75.008 37.3697 77.5428 37.3633C79.9378 37.3569 82.2502 39.3075 82.1232 41.9378Z" fill="#8F8F8F"/>
<path d="M71.5524 32.6923C71.6604 35.4052 69.4369 37.3748 66.9656 37.324C64.3038 37.2668 62.4233 35.2972 62.4233 32.6796C62.4233 30.1382 64.4372 28.1242 66.972 28.1178C69.367 28.1115 71.6794 30.062 71.5524 32.6923Z" fill="#696969"/>
</svg>
