<svg width="110" height="110" viewBox="0 0 110 110" fill="none" xmlns="http://www.w3.org/2000/svg">
<circle cx="55" cy="55" r="55" fill="#121212"/>
<path d="M50.625 35.8C50.1552 35.3219 49.5708 34.9721 48.9275 34.784C48.2842 34.5958 47.6034 34.5755 46.95 34.725C46.2907 34.8707 45.679 35.181 45.1719 35.6269C44.6649 36.0727 44.2789 36.6397 44.05 37.275L30.575 74.3C30.3649 74.9026 30.3011 75.5465 30.3888 76.1786C30.4765 76.8108 30.7133 77.413 31.0796 77.9356C31.4459 78.4582 31.9312 78.8862 32.4955 79.1843C33.0598 79.4823 33.6869 79.642 34.325 79.65C34.7926 79.6507 35.2571 79.5747 35.7 79.425L72.725 65.95C73.3603 65.7211 73.9273 65.3352 74.3732 64.8281C74.8191 64.321 75.1293 63.7093 75.275 63.05C75.4246 62.3966 75.4043 61.7158 75.2161 61.0725C75.0279 60.4292 74.6781 59.8448 74.2 59.375L50.625 35.8ZM49.125 70.275L39.725 60.875L43 51.825L58.175 67L49.125 70.275ZM34.35 75.65L38.2 65.025L44.975 71.8L34.35 75.65ZM62.325 65.475L44.525 47.675L47.8 38.625L71.375 62.2L62.325 65.475ZM63 41C63.0368 39.6474 63.3607 38.318 63.95 37.1C65.275 34.45 67.775 33 71 33C72.675 33 73.75 32.425 74.425 31.2C74.7691 30.5063 74.965 29.7486 75 28.975C75 28.7135 75.0519 28.4546 75.1527 28.2134C75.2535 27.9721 75.4013 27.7533 75.5873 27.5696C75.7734 27.3858 75.994 27.2409 76.2366 27.1431C76.4791 27.0453 76.7386 26.9967 77 27C77.5305 27 78.0392 27.2107 78.4143 27.5858C78.7893 27.9609 79 28.4696 79 29C79 32.225 76.875 37 71 37C69.325 37 68.25 37.575 67.575 38.8C67.2309 39.4937 67.0351 40.2514 67 41.025C67.0001 41.2865 66.9482 41.5454 66.8473 41.7866C66.7465 42.0279 66.5988 42.2467 66.4128 42.4305C66.2267 42.6142 66.006 42.7591 65.7635 42.8569C65.521 42.9547 65.2615 43.0033 65 43C64.4696 43 63.9609 42.7893 63.5858 42.4142C63.2108 42.0391 63 41.5304 63 41ZM57 33V27C57 26.4696 57.2108 25.9609 57.5858 25.5858C57.9609 25.2107 58.4696 25 59 25C59.5305 25 60.0392 25.2107 60.4143 25.5858C60.7893 25.9609 61 26.4696 61 27V33C61 33.5304 60.7893 34.0391 60.4143 34.4142C60.0392 34.7893 59.5305 35 59 35C58.4696 35 57.9609 34.7893 57.5858 34.4142C57.2108 34.0391 57 33.5304 57 33ZM82.425 53.575C82.8006 53.9542 83.0113 54.4663 83.0113 55C83.0113 55.5337 82.8006 56.0458 82.425 56.425C82.0428 56.7946 81.5318 57.0013 81 57.0013C80.4683 57.0013 79.9573 56.7946 79.575 56.425L75.575 52.425C75.2561 52.0364 75.0931 51.5431 75.1178 51.041C75.1424 50.5389 75.353 50.0639 75.7085 49.7084C76.0639 49.353 76.5389 49.1424 77.041 49.1178C77.5431 49.0931 78.0364 49.2561 78.425 49.575L82.425 53.575ZM83.625 42.9L77.625 44.9C77.4241 44.9695 77.2126 45.0033 77 45C76.5244 45.0001 76.0642 44.8307 75.7022 44.5222C75.3402 44.2136 75.1 43.7861 75.0247 43.3165C74.9495 42.8468 75.0441 42.3657 75.2915 41.9595C75.539 41.5532 75.9232 41.2485 76.375 41.1L82.375 39.1C82.6245 39.0179 82.8878 38.9858 83.1497 39.0055C83.4116 39.0251 83.6671 39.0962 83.9016 39.2146C84.1361 39.333 84.3449 39.4964 84.5162 39.6955C84.6875 39.8946 84.818 40.1255 84.9 40.375C84.9821 40.6245 85.0142 40.8877 84.9946 41.1497C84.9749 41.4116 84.9039 41.6671 84.7855 41.9016C84.6671 42.136 84.5037 42.3449 84.3046 42.5162C84.1055 42.6875 83.8745 42.8179 83.625 42.9Z" fill="white"/>
</svg>
