<svg width="28" height="28" viewBox="0 0 28 28" fill="none" xmlns="http://www.w3.org/2000/svg">
<path d="M25.5265 23.0643V23.1123H25.5713C25.5797 23.1124 25.588 23.1103 25.5953 23.1062C25.5982 23.1041 25.6006 23.1013 25.6021 23.0981C25.6037 23.0949 25.6045 23.0914 25.6043 23.0878C25.6045 23.0843 25.6037 23.0808 25.6021 23.0777C25.6006 23.0746 25.5982 23.0719 25.5953 23.0699C25.5881 23.0656 25.5797 23.0635 25.5713 23.0638H25.5265V23.0643ZM25.5718 23.0303C25.591 23.0291 25.61 23.0347 25.6255 23.0459C25.6318 23.051 25.6367 23.0575 25.64 23.0649C25.6433 23.0723 25.6448 23.0803 25.6444 23.0884C25.6447 23.0953 25.6435 23.1023 25.6409 23.1087C25.6383 23.1151 25.6343 23.1209 25.6293 23.1257C25.6173 23.1362 25.6022 23.1424 25.5863 23.1436L25.6463 23.212H25.6001L25.5449 23.1441H25.527V23.212H25.4884V23.0304H25.5724L25.5718 23.0303ZM25.5598 23.2746C25.5801 23.2748 25.6001 23.2707 25.6187 23.2626C25.6366 23.2549 25.6529 23.2439 25.6667 23.2301C25.6805 23.2164 25.6916 23.2001 25.6992 23.1821C25.715 23.1441 25.715 23.1014 25.6992 23.0633C25.6915 23.0454 25.6804 23.0292 25.6667 23.0153C25.6529 23.0016 25.6366 22.9905 25.6187 22.9828C25.6 22.9751 25.58 22.9713 25.5598 22.9715C25.5392 22.9713 25.5189 22.9752 25.4998 22.9828C25.4815 22.9904 25.4648 23.0014 25.4507 23.0153C25.4295 23.0371 25.4151 23.0646 25.4094 23.0945C25.4037 23.1244 25.4069 23.1553 25.4187 23.1833C25.426 23.2013 25.4369 23.2177 25.4507 23.2313C25.4648 23.2452 25.4815 23.2563 25.4998 23.2638C25.5187 23.2719 25.5392 23.276 25.5598 23.2758V23.2746ZM25.5598 22.9278C25.6125 22.9278 25.6632 22.9485 25.7008 22.9854C25.7189 23.0032 25.7334 23.0244 25.7433 23.0477C25.7535 23.0717 25.7588 23.0975 25.7588 23.1236C25.7588 23.1497 25.7535 23.1755 25.7433 23.1995C25.7331 23.2228 25.7187 23.2439 25.7008 23.2618C25.6824 23.2795 25.661 23.2937 25.6375 23.3038C25.613 23.3142 25.5865 23.3196 25.5598 23.3194C25.5328 23.3196 25.506 23.3143 25.4811 23.3038C25.4574 23.2939 25.4358 23.2797 25.4173 23.2618C25.3994 23.2432 25.3852 23.2214 25.3755 23.1975C25.3652 23.1735 25.3599 23.1477 25.3599 23.1216C25.3599 23.0955 25.3652 23.0697 25.3755 23.0457C25.3854 23.0223 25.3998 23.0012 25.4179 22.9834C25.4361 22.9652 25.4578 22.9509 25.4817 22.9414C25.5066 22.9309 25.5334 22.9256 25.5604 22.9258L25.5598 22.9278ZM7.18539 22.2267C7.18539 21.8805 7.41219 21.5961 7.78287 21.5961C8.13711 21.5961 8.37615 21.8682 8.37615 22.2267C8.37615 22.5851 8.13711 22.8573 7.78287 22.8573C7.41219 22.8573 7.18539 22.5729 7.18539 22.2267ZM8.77995 22.2267V21.2415H8.35167V21.4815C8.21583 21.3041 8.00979 21.1929 7.72959 21.1929C7.17759 21.1929 6.74439 21.6258 6.74439 22.2272C6.74439 22.8285 7.17735 23.2614 7.72959 23.2614C8.00967 23.2614 8.21583 23.1501 8.35167 22.9728V23.212H8.77947V22.2267H8.77995ZM23.251 22.2267C23.251 21.8805 23.4778 21.5961 23.8486 21.5961C24.2032 21.5961 24.4419 21.8682 24.4419 22.2267C24.4419 22.5851 24.2032 22.8573 23.8486 22.8573C23.4779 22.8573 23.251 22.5729 23.251 22.2267ZM24.846 22.2267V20.4507H24.4174V21.4815C24.2815 21.3041 24.0755 21.1929 23.7953 21.1929C23.2433 21.1929 22.8101 21.6258 22.8101 22.2272C22.8101 22.8285 23.2431 23.2614 23.7953 23.2614C24.0755 23.2614 24.2815 23.1501 24.4174 22.9728V23.212H24.846V22.2267ZM14.0955 21.5758C14.3715 21.5758 14.5487 21.7488 14.5939 22.0535H13.572C13.6177 21.7691 13.7904 21.5758 14.0956 21.5758H14.0955ZM14.1041 21.1918C13.5269 21.1918 13.1231 21.6118 13.1231 22.2261C13.1231 22.8524 13.5431 23.2604 14.1328 23.2604C14.4294 23.2604 14.7011 23.1863 14.9401 22.9844L14.7303 22.667C14.5651 22.799 14.3549 22.873 14.1573 22.873C13.8813 22.873 13.63 22.7452 13.5682 22.3906H15.0306C15.0348 22.3373 15.0391 22.2836 15.0391 22.226C15.0348 21.6119 14.6551 21.1917 14.1039 21.1917L14.1041 21.1918ZM19.2747 22.226C19.2747 21.8798 19.5015 21.5954 19.8721 21.5954C20.2264 21.5954 20.4654 21.8675 20.4654 22.226C20.4654 22.5844 20.2264 22.8566 19.8721 22.8566C19.5015 22.8566 19.2745 22.5722 19.2745 22.226H19.2747ZM20.8691 22.226V21.2415H20.4411V21.4815C20.3047 21.3041 20.0992 21.1929 19.819 21.1929C19.267 21.1929 18.8338 21.6258 18.8338 22.2272C18.8338 22.8285 19.2667 23.2614 19.819 23.2614C20.0992 23.2614 20.3047 23.1501 20.4411 22.9728V23.212H20.8692V22.2267L20.8691 22.226ZM16.8561 22.226C16.8561 22.8234 17.272 23.2602 17.9068 23.2602C18.2034 23.2602 18.4011 23.1942 18.6148 23.0254L18.4091 22.6792C18.2483 22.7948 18.0795 22.8566 17.8931 22.8566C17.5512 22.8524 17.2998 22.6052 17.2998 22.226C17.2998 21.8468 17.5512 21.5997 17.8931 21.5954C18.079 21.5954 18.2478 21.6572 18.4091 21.7727L18.6148 21.4265C18.4007 21.2577 18.2031 21.1917 17.9068 21.1917C17.272 21.1917 16.8561 21.6284 16.8561 22.226ZM22.3773 21.1917C22.1302 21.1917 21.9693 21.3072 21.858 21.4803V21.2415H21.4336V23.2109H21.8623V22.1069C21.8623 21.781 22.0024 21.5999 22.2823 21.5999C22.374 21.5986 22.4651 21.6154 22.5502 21.6495L22.6822 21.2458C22.5874 21.2085 22.4638 21.192 22.377 21.192L22.3773 21.1917ZM10.8973 21.3981C10.6913 21.2622 10.4074 21.192 10.0942 21.192C9.59523 21.192 9.27399 21.4312 9.27399 21.8225C9.27399 22.1436 9.51315 22.3418 9.95355 22.4036L10.1559 22.4324C10.3907 22.4654 10.5016 22.5272 10.5016 22.6384C10.5016 22.7907 10.3456 22.8776 10.0527 22.8776C9.75603 22.8776 9.54195 22.7828 9.39759 22.6715L9.19635 23.0055C9.43119 23.1785 9.72783 23.2611 10.0491 23.2611C10.6179 23.2611 10.9475 22.9932 10.9475 22.6182C10.9475 22.272 10.6881 22.091 10.2594 22.0292L10.0576 21.9999C9.87219 21.9759 9.72363 21.9386 9.72363 21.8066C9.72363 21.6626 9.86367 21.5759 10.0986 21.5759C10.35 21.5759 10.5934 21.6707 10.7127 21.7448L10.8981 21.3986L10.8973 21.3981ZM16.4235 21.1924C16.1764 21.1924 16.0155 21.308 15.9047 21.481V21.2415H15.4803V23.2109H15.9085V22.1069C15.9085 21.781 16.0486 21.5999 16.3285 21.5999C16.4202 21.5986 16.5113 21.6154 16.5964 21.6495L16.7284 21.2458C16.6336 21.2085 16.51 21.192 16.4232 21.192L16.4235 21.1924ZM12.7687 21.2415H12.0684V20.644H11.6355V21.2415H11.236V21.6329H11.6355V22.5314C11.6355 22.9883 11.8128 23.2605 12.3195 23.2605C12.5053 23.2605 12.7194 23.2029 12.8553 23.1082L12.7315 22.7415C12.6037 22.8155 12.4637 22.8528 12.3523 22.8528C12.1383 22.8528 12.0684 22.7208 12.0684 22.5232V21.6333H12.7687V21.2415ZM6.36567 23.2114V21.9754C6.36567 21.5099 6.06903 21.1967 5.59083 21.1925C5.33943 21.1883 5.08011 21.2666 4.89855 21.5429C4.76271 21.3245 4.54863 21.1925 4.24767 21.1925C4.03731 21.1925 3.83175 21.2543 3.67083 21.485V21.2415H3.24219V23.2109H3.67419V22.1189C3.67419 21.777 3.86379 21.5954 4.15659 21.5954C4.44099 21.5954 4.58487 21.7808 4.58487 22.1146V23.2107H5.01783V22.1187C5.01783 21.7768 5.21547 21.5951 5.49975 21.5951C5.79219 21.5951 5.93175 21.7805 5.93175 22.1144V23.2104L6.36567 23.2114Z" fill="#231F20"/>
<path d="M25.7716 16.6601V16.3721H25.6966L25.6098 16.5697L25.5235 16.3721H25.4483V16.6601H25.5016V16.4431L25.5827 16.6303H25.6379L25.719 16.4426V16.6601H25.7718H25.7716ZM25.2958 16.6601V16.4214H25.3918V16.3728H25.1465V16.4214H25.2425V16.6601H25.2953H25.2958Z" fill="#F79410"/>
<path d="M17.2462 17.8954H10.7559V6.23145H17.2463L17.2462 17.8954Z" fill="#FF5F00"/>
<path d="M11.168 12.0636C11.168 9.69752 12.2758 7.58984 14.001 6.23156C12.6951 5.20189 11.08 4.64306 9.41708 4.64552C5.32064 4.64552 2 7.96664 2 12.0636C2 16.1605 5.32064 19.4816 9.41708 19.4816C11.0801 19.4841 12.6952 18.9252 14.0011 17.8956C12.2761 16.5375 11.168 14.4297 11.168 12.0636Z" fill="#EB001B"/>
<path d="M26.0036 12.0636C26.0036 16.1605 22.683 19.4816 18.5866 19.4816C16.9234 19.484 15.3081 18.9252 14.002 17.8956C15.7276 16.5373 16.8354 14.4297 16.8354 12.0636C16.8354 9.6974 15.7276 7.58984 14.002 6.23156C15.308 5.20192 16.9233 4.6431 18.5864 4.64552C22.6829 4.64552 26.0035 7.96664 26.0035 12.0636" fill="#F79E1B"/>
</svg>
