<svg width="28" height="28" viewBox="0 0 28 28" fill="none" xmlns="http://www.w3.org/2000/svg">
<path d="M27.4026 5.50712H0.503906V22.5H27.4967V5.5H27.4026V5.50712ZM27.3013 5.69941C27.3013 5.89171 27.3013 22.1225 27.3013 22.3148C27.106 22.3148 0.887347 22.3148 0.699244 22.3148C0.699244 22.1225 0.699244 5.89171 0.699244 5.70654C0.894581 5.69941 27.1132 5.69941 27.3013 5.69941Z" fill="black"/>
<path d="M27.3011 14.9507C27.3011 14.9507 19.9796 20.0357 6.56641 22.3147H27.3011V14.9507Z" fill="#F58220"/>
<path d="M14.6399 9.82324C13.5403 9.82324 12.6504 10.6707 12.6504 11.7105C12.6504 12.8216 13.5041 13.6477 14.6399 13.6477C15.7469 13.6477 16.6295 12.8073 16.6295 11.7319C16.6295 10.6636 15.7541 9.82324 14.6399 9.82324Z" fill="url(#paint0_radial_1583_2955)"/>
<path d="M3.33286 9.89453H2.25488V13.5694H3.32562C3.88993 13.5694 4.30231 13.4341 4.65681 13.1421C5.08366 12.7931 5.33688 12.2732 5.33688 11.732C5.33688 10.6495 4.51212 9.89453 3.33286 9.89453ZM4.17932 12.6507C3.94781 12.8572 3.65118 12.9427 3.18093 12.9427H2.98559V10.5141H3.18093C3.65118 10.5141 3.94057 10.5996 4.17932 10.8133C4.43254 11.034 4.58446 11.3759 4.58446 11.7249C4.58446 12.081 4.43254 12.4371 4.17932 12.6507Z" fill="black"/>
<path d="M6.40063 9.89453H5.66992V13.5694H6.40063V9.89453Z" fill="black"/>
<path d="M8.1806 11.304C7.74652 11.1473 7.6163 11.0405 7.6163 10.8411C7.6163 10.6061 7.84781 10.4352 8.1589 10.4352C8.37594 10.4352 8.55681 10.5206 8.74491 10.7343L9.12835 10.2429C8.81726 9.97223 8.44105 9.83691 8.02867 9.83691C7.37031 9.83691 6.86388 10.2927 6.86388 10.891C6.86388 11.3966 7.10263 11.6601 7.78269 11.9023C8.07208 12.002 8.21678 12.0661 8.28912 12.1088C8.43382 12.2014 8.50617 12.3367 8.50617 12.4863C8.50617 12.7854 8.26742 13.0062 7.94186 13.0062C7.59459 13.0062 7.31244 12.8352 7.14604 12.5148L6.67578 12.9634C7.00858 13.4477 7.41372 13.6614 7.9708 13.6614C8.73044 13.6614 9.25858 13.1628 9.25858 12.4507C9.25858 11.8667 9.0126 11.596 8.1806 11.304Z" fill="black"/>
<path d="M9.48926 11.7318C9.48926 12.8143 10.3502 13.6547 11.4643 13.6547C11.7754 13.6547 12.0504 13.5906 12.3759 13.4411V12.5935C12.0865 12.8784 11.8261 12.9995 11.4933 12.9995C10.7626 12.9995 10.2344 12.4725 10.2344 11.7318C10.2344 11.0267 10.7698 10.4712 11.4571 10.4712C11.8044 10.4712 12.0648 10.5923 12.3687 10.8843V10.0297C12.0504 9.87298 11.7827 9.80176 11.4716 9.80176C10.3719 9.80888 9.48926 10.6635 9.48926 11.7318Z" fill="black"/>
<path d="M18.2796 12.3587L17.2812 9.89453H16.4854L18.0698 13.662H18.4604L20.0738 9.89453H19.2852L18.2796 12.3587Z" fill="black"/>
<path d="M20.4062 13.5694H22.4754V12.9498H21.137V11.9528H22.4247V11.3332H21.137V10.5141H22.4754V9.89453H20.4062V13.5694Z" fill="black"/>
<path d="M25.3629 10.9771C25.3629 10.2862 24.8781 9.89453 24.0389 9.89453H22.9609V13.5694H23.6916V12.0881H23.7857L24.7913 13.5694H25.6884L24.5092 12.0169C25.059 11.91 25.3629 11.5397 25.3629 10.9771ZM23.9015 11.5824H23.6916V10.4714H23.9159C24.3717 10.4714 24.6177 10.6566 24.6177 11.0198C24.6105 11.383 24.3645 11.5824 23.9015 11.5824Z" fill="black"/>
<path d="M25.876 10.1651C25.876 10.101 25.8326 10.0654 25.7531 10.0654H25.6445V10.3859H25.7241V10.2577L25.8182 10.3859H25.9122L25.8037 10.2506C25.8471 10.2435 25.876 10.2079 25.876 10.1651ZM25.7386 10.2079H25.7241V10.1224H25.7386C25.7748 10.1224 25.7965 10.1366 25.7965 10.1651C25.7965 10.1936 25.7748 10.2079 25.7386 10.2079Z" fill="black"/>
<path d="M25.7679 9.94434C25.6087 9.94434 25.4785 10.0725 25.4785 10.2292C25.4785 10.3859 25.6087 10.5141 25.7679 10.5141C25.9271 10.5141 26.0501 10.3859 26.0501 10.2292C26.0501 10.0725 25.9198 9.94434 25.7679 9.94434ZM25.7679 10.4571C25.6377 10.4571 25.5364 10.3503 25.5364 10.2221C25.5364 10.0939 25.6377 9.98707 25.7679 9.98707C25.8909 9.98707 25.9922 10.0939 25.9922 10.2221C25.9922 10.3574 25.8909 10.4571 25.7679 10.4571Z" fill="black"/>
<path d="M8.78711 14.5376L9.7638 15.5418V14.5875H9.90126V15.8765L8.92457 14.8723V15.8195H8.78711V14.5376Z" fill="black"/>
<path d="M8.78027 14.5378V15.834H8.94667C8.94667 15.834 8.94667 14.9651 8.94667 14.9081C8.99008 14.9508 9.92336 15.9123 9.92336 15.9123V14.5805H9.75696C9.75696 14.5805 9.75696 15.4565 9.75696 15.5135C9.71355 15.4707 8.78027 14.5093 8.78027 14.5093V14.5378ZM8.80198 14.5663C8.84539 14.609 9.77867 15.5704 9.77867 15.5704C9.77867 15.5704 9.77867 14.6232 9.77867 14.5947C9.80037 14.5947 9.87272 14.5947 9.89442 14.5947C9.89442 14.6161 9.89442 15.777 9.89442 15.834C9.85101 15.7912 8.91773 14.8298 8.91773 14.8298C8.91773 14.8298 8.91773 15.7699 8.91773 15.7983C8.89603 15.7983 8.82368 15.7983 8.80198 15.7983C8.80198 15.7841 8.80198 14.6303 8.80198 14.5663Z" fill="black"/>
<path d="M10.582 14.5874H11.2332V14.7156H10.7267V15.0788H11.2187V15.207H10.7267V15.6913H11.2332V15.8195H10.582V14.5874Z" fill="black"/>
<path d="M11.2257 14.5732H10.5674V15.8338H11.2402V15.6771C11.2402 15.6771 10.7555 15.6771 10.7338 15.6771C10.7338 15.6558 10.7338 15.2427 10.7338 15.2213C10.7555 15.2213 11.2257 15.2213 11.2257 15.2213V15.0718C11.2257 15.0718 10.7555 15.0718 10.7338 15.0718C10.7338 15.0504 10.7338 14.7513 10.7338 14.7299C10.7555 14.7299 11.2402 14.7299 11.2402 14.7299V14.5732H11.2257ZM11.2113 14.6017C11.2113 14.6231 11.2113 14.6872 11.2113 14.7014C11.1896 14.7014 10.7048 14.7014 10.7048 14.7014V15.0931C10.7048 15.0931 11.1751 15.0931 11.1968 15.0931C11.1968 15.1145 11.1968 15.1786 11.1968 15.1928C11.1751 15.1928 10.7048 15.1928 10.7048 15.1928V15.6985C10.7048 15.6985 11.1896 15.6985 11.2113 15.6985C11.2113 15.7199 11.2113 15.784 11.2113 15.7982C11.1896 15.7982 10.6108 15.7982 10.5891 15.7982C10.5891 15.7768 10.5891 14.616 10.5891 14.5946C10.618 14.6017 11.1896 14.6017 11.2113 14.6017Z" fill="black"/>
<path d="M12.2099 15.8195H12.0724V14.7156H11.7686V14.5874H12.5137V14.7156H12.2099V15.8195Z" fill="black"/>
<path d="M12.5136 14.5732H11.7539V14.7299C11.7539 14.7299 12.0288 14.7299 12.0578 14.7299C12.0578 14.7513 12.0578 15.8338 12.0578 15.8338H12.2242C12.2242 15.8338 12.2242 14.7584 12.2242 14.7299C12.2459 14.7299 12.528 14.7299 12.528 14.7299V14.5732H12.5136ZM12.5063 14.6017C12.5063 14.6231 12.5063 14.6872 12.5063 14.7014C12.4846 14.7014 12.2025 14.7014 12.2025 14.7014C12.2025 14.7014 12.2025 15.7768 12.2025 15.8053C12.1808 15.8053 12.1084 15.8053 12.0867 15.8053C12.0867 15.784 12.0867 14.7014 12.0867 14.7014C12.0867 14.7014 11.8118 14.7014 11.7828 14.7014C11.7828 14.6801 11.7828 14.616 11.7828 14.6017C11.8045 14.6017 12.4774 14.6017 12.5063 14.6017Z" fill="black"/>
<path d="M13.4462 15.5134L13.8514 14.5234L14.2565 15.5134L14.5821 14.5947H14.734L14.2565 15.8908L13.8514 14.9009L13.4462 15.8908L12.9688 14.5947H13.1207L13.4462 15.5134Z" fill="black"/>
<path d="M13.8371 14.5163C13.8371 14.5163 13.4682 15.4136 13.4465 15.4706C13.4248 15.4136 13.1281 14.5733 13.1281 14.5733H12.9473L13.4465 15.9193C13.4465 15.9193 13.8299 14.9792 13.8516 14.9294C13.8733 14.9863 14.2568 15.9193 14.2568 15.9193L14.7559 14.5733H14.5751C14.5751 14.5733 14.2785 15.4136 14.2568 15.4706C14.235 15.4136 13.8516 14.4878 13.8516 14.4878L13.8371 14.5163ZM13.4609 15.5133C13.4609 15.5133 13.8299 14.6089 13.8516 14.559C13.8733 14.616 14.2568 15.549 14.2568 15.549C14.2568 15.549 14.5895 14.6231 14.5968 14.6017C14.6113 14.6017 14.6908 14.6017 14.7198 14.6017C14.7053 14.6374 14.2785 15.7911 14.2568 15.8481C14.235 15.7911 13.8516 14.8581 13.8516 14.8581C13.8516 14.8581 13.4682 15.7911 13.4465 15.8481C13.4248 15.7911 12.9979 14.6374 12.9834 14.6017C13.0124 14.6017 13.092 14.6017 13.1064 14.6017C13.1137 14.616 13.4465 15.549 13.4465 15.549L13.4609 15.5133Z" fill="black"/>
<path d="M16.5366 15.2074C16.5366 15.5635 16.24 15.8412 15.8855 15.8412C15.531 15.8412 15.2344 15.5635 15.2344 15.2074C15.2344 14.8584 15.531 14.5664 15.8855 14.5664C16.24 14.5664 16.5366 14.8513 16.5366 15.2074ZM15.3718 15.2003C15.3718 15.478 15.6033 15.7059 15.8855 15.7059C16.1677 15.7059 16.3992 15.4709 16.3992 15.2003C16.3992 14.9225 16.1749 14.6875 15.8855 14.6875C15.5961 14.6946 15.3718 14.9225 15.3718 15.2003Z" fill="black"/>
<path d="M15.2188 15.2068C15.2188 15.5629 15.5154 15.8549 15.8843 15.8549C16.2533 15.8549 16.5499 15.5629 16.5499 15.2068C16.5499 14.8507 16.2533 14.5587 15.8843 14.5587C15.5154 14.5516 15.2188 14.8436 15.2188 15.2068ZM15.2477 15.2068C15.2477 14.865 15.5371 14.5801 15.8843 14.5801C16.2388 14.5801 16.521 14.8578 16.521 15.2068C16.521 15.5487 16.2316 15.8264 15.8843 15.8264C15.5298 15.8264 15.2477 15.5487 15.2477 15.2068Z" fill="black"/>
<path d="M15.3574 15.2001C15.3574 15.4921 15.5962 15.72 15.8856 15.72C16.1749 15.72 16.4137 15.485 16.4137 15.2001C16.4137 14.9152 16.1822 14.6802 15.8856 14.6802C15.5962 14.6802 15.3574 14.9152 15.3574 15.2001ZM15.3864 15.2001C15.3864 14.9294 15.6106 14.7015 15.8856 14.7015C16.1605 14.7015 16.3848 14.9223 16.3848 15.2001C16.3848 15.4707 16.1605 15.6986 15.8856 15.6986C15.6106 15.6986 15.3864 15.4778 15.3864 15.2001Z" fill="black"/>
<path d="M17.281 15.8195H17.1436V14.5874H17.3244C17.5632 14.5874 17.7802 14.6515 17.7802 14.9293C17.7802 15.1215 17.6572 15.2497 17.4691 15.2711L17.867 15.8195H17.6934L17.3172 15.2782H17.281V15.8195ZM17.281 15.1572H17.3244C17.4836 15.1572 17.6428 15.1287 17.6428 14.9364C17.6428 14.737 17.4908 14.7156 17.3244 14.7156H17.281V15.1572Z" fill="black"/>
<path d="M17.1434 14.5732H17.1289V15.8338H17.2953C17.2953 15.8338 17.2953 15.321 17.2953 15.2926C17.3025 15.2926 17.317 15.2926 17.317 15.2926C17.317 15.2997 17.686 15.8267 17.686 15.8267L17.8668 15.8338H17.8958C17.8958 15.8338 17.5123 15.3068 17.4979 15.2783C17.6787 15.2569 17.8017 15.1216 17.8017 14.9293C17.8017 14.6943 17.6498 14.5804 17.3315 14.5804H17.1434V14.5732ZM17.3242 14.6017C17.6281 14.6017 17.7656 14.7086 17.7656 14.9293C17.7656 15.1145 17.6498 15.2427 17.4617 15.2569H17.44C17.44 15.2569 17.809 15.7697 17.8379 15.8053C17.8017 15.8053 17.6932 15.8053 17.6932 15.8053C17.6932 15.7982 17.3242 15.2712 17.3242 15.2712L17.2808 15.2641H17.2664C17.2664 15.2641 17.2664 15.7768 17.2664 15.8053C17.2447 15.8053 17.1723 15.8053 17.1506 15.8053C17.1506 15.784 17.1506 14.6231 17.1506 14.6017C17.1723 14.6017 17.3242 14.6017 17.3242 14.6017Z" fill="black"/>
<path d="M17.2811 14.7012H17.2666V15.1712H17.3245C17.4764 15.1712 17.6573 15.1427 17.6573 14.9362C17.6573 14.7225 17.4836 14.7012 17.3245 14.7012H17.2811ZM17.3245 14.7297C17.4836 14.7297 17.6283 14.7439 17.6283 14.9362C17.6283 15.1214 17.4764 15.1427 17.3245 15.1427C17.3245 15.1427 17.31 15.1427 17.2955 15.1427C17.2955 15.1214 17.2955 14.751 17.2955 14.7297C17.3028 14.7297 17.3245 14.7297 17.3245 14.7297Z" fill="black"/>
<path d="M19.126 14.5874H19.3141L18.728 15.1643L19.3358 15.8195H19.1404L18.6268 15.2569L18.5906 15.2925V15.8266H18.4531V14.5945H18.5906V15.1215L19.126 14.5874Z" fill="black"/>
<path d="M19.3149 14.5732H19.1195C19.1195 14.5732 18.642 15.0433 18.6059 15.086C18.6059 15.029 18.6059 14.5732 18.6059 14.5732H18.4395V15.8338H18.6059V15.2926C18.6059 15.2926 18.6203 15.2854 18.6276 15.2783C18.642 15.2997 19.134 15.8338 19.134 15.8338L19.3366 15.8409H19.3655C19.3655 15.8409 18.765 15.1857 18.7433 15.1715C18.765 15.1572 19.3438 14.5875 19.3438 14.5875H19.3149V14.5732ZM19.2787 14.6017C19.2353 14.6445 18.7071 15.1644 18.7071 15.1644C18.7071 15.1644 19.2642 15.7697 19.3004 15.8125C19.257 15.8125 19.134 15.8125 19.134 15.8125C19.134 15.8053 18.6276 15.2498 18.6276 15.2498L18.6203 15.2427L18.5769 15.2854C18.5769 15.2854 18.5697 15.7911 18.5697 15.8125C18.548 15.8125 18.4756 15.8125 18.4539 15.8125C18.4539 15.7911 18.4539 14.6302 18.4539 14.6089C18.4756 14.6089 18.548 14.6089 18.5697 14.6089C18.5697 14.6302 18.5697 15.1572 18.5697 15.1572C18.5697 15.1572 19.1123 14.616 19.1195 14.6089C19.1412 14.6017 19.2425 14.6017 19.2787 14.6017Z" fill="black"/>
<defs>
<radialGradient id="paint0_radial_1583_2955" cx="0" cy="0" r="1" gradientUnits="userSpaceOnUse" gradientTransform="translate(14.6387 11.7371) scale(1.96777 1.93709)">
<stop offset="0.005618" stop-color="#FFEFE1"/>
<stop offset="0.0968211" stop-color="#FFEAD8"/>
<stop offset="0.2456" stop-color="#FEDEC1"/>
<stop offset="0.4337" stop-color="#FDCA9E"/>
<stop offset="0.6534" stop-color="#FAAF72"/>
<stop offset="0.8971" stop-color="#F79038"/>
<stop offset="1" stop-color="#F58220"/>
</radialGradient>
</defs>
</svg>
