<svg width="28" height="28" viewBox="0 0 28 28" fill="none" xmlns="http://www.w3.org/2000/svg">
<path d="M27.4675 20.1902C27.4675 22.4951 25.5906 24.3719 23.2858 24.3719H0.533203V7.80966C0.533203 5.50477 2.41004 3.62793 4.71493 3.62793H27.4675V20.1902Z" fill="white"/>
<path d="M20.0586 15.9428H21.7873C21.8367 15.9428 21.9519 15.9263 22.0013 15.9263C22.3306 15.8605 22.6104 15.5641 22.6104 15.1526C22.6104 14.7574 22.3306 14.4611 22.0013 14.3788C21.9519 14.3623 21.8531 14.3623 21.7873 14.3623H20.0586V15.9428Z" fill="url(#paint0_linear_1583_2987)"/>
<path d="M21.59 5.02734C19.9436 5.02734 18.5936 6.36089 18.5936 8.0237V11.1353H22.8247C22.9235 11.1353 23.0388 11.1353 23.1211 11.1518C24.076 11.2012 24.7839 11.6951 24.7839 12.5512C24.7839 13.2262 24.3064 13.8024 23.4174 13.9176V13.9506C24.3888 14.0164 25.1296 14.5597 25.1296 15.3993C25.1296 16.3048 24.3064 16.8975 23.2199 16.8975H18.5771V22.989H22.9729C24.6193 22.989 25.9693 21.6555 25.9693 19.9927V5.02734H21.59Z" fill="url(#paint1_linear_1583_2987)"/>
<path d="M22.3964 12.7488C22.3964 12.3537 22.1165 12.0903 21.7873 12.0409C21.7543 12.0409 21.672 12.0244 21.6226 12.0244H20.0586V13.4732H21.6226C21.672 13.4732 21.7708 13.4732 21.7873 13.4567C22.1165 13.4073 22.3964 13.1439 22.3964 12.7488Z" fill="url(#paint2_linear_1583_2987)"/>
<path d="M5.02845 5.02734C3.3821 5.02734 2.03209 6.36089 2.03209 8.0237V15.4158C2.87173 15.8274 3.74429 16.0908 4.61686 16.0908C5.65406 16.0908 6.21382 15.4652 6.21382 14.6091V11.1188H8.78212V14.5926C8.78212 15.9426 7.94248 17.0457 5.0943 17.0457C3.36563 17.0457 2.01562 16.667 2.01562 16.667V22.9726H6.41138C8.05773 22.9726 9.40773 21.639 9.40773 19.9762V5.02734H5.02845Z" fill="url(#paint3_linear_1583_2987)"/>
<path d="M13.3089 5.02734C11.6625 5.02734 10.3125 6.36089 10.3125 8.0237V11.942C11.0698 11.2999 12.3869 10.8883 14.5107 10.9871C15.6467 11.0365 16.865 11.3493 16.865 11.3493V12.617C16.2558 12.3042 15.5314 12.0243 14.593 11.9585C12.9796 11.8432 12.0082 12.6335 12.0082 14.0164C12.0082 15.4158 12.9796 16.2061 14.593 16.0744C15.5314 16.0085 16.2558 15.7122 16.865 15.4158V16.6835C16.865 16.6835 15.6631 16.9963 14.5107 17.0457C12.3869 17.1445 11.0698 16.7329 10.3125 16.0908V23.0055H14.7083C16.3546 23.0055 17.7046 21.6719 17.7046 20.0091V5.02734H13.3089Z" fill="url(#paint4_linear_1583_2987)"/>
<defs>
<linearGradient id="paint0_linear_1583_2987" x1="18.5905" y1="15.1545" x2="25.9889" y2="15.1545" gradientUnits="userSpaceOnUse">
<stop stop-color="#007940"/>
<stop offset="0.229" stop-color="#00873F"/>
<stop offset="0.743" stop-color="#40A737"/>
<stop offset="1" stop-color="#5CB531"/>
</linearGradient>
<linearGradient id="paint1_linear_1583_2987" x1="18.5906" y1="14.0009" x2="25.9895" y2="14.0009" gradientUnits="userSpaceOnUse">
<stop stop-color="#007940"/>
<stop offset="0.229" stop-color="#00873F"/>
<stop offset="0.743" stop-color="#40A737"/>
<stop offset="1" stop-color="#5CB531"/>
</linearGradient>
<linearGradient id="paint2_linear_1583_2987" x1="18.5904" y1="12.7467" x2="25.9889" y2="12.7467" gradientUnits="userSpaceOnUse">
<stop stop-color="#007940"/>
<stop offset="0.229" stop-color="#00873F"/>
<stop offset="0.743" stop-color="#40A737"/>
<stop offset="1" stop-color="#5CB531"/>
</linearGradient>
<linearGradient id="paint3_linear_1583_2987" x1="2.02863" y1="14.0009" x2="9.54142" y2="14.0009" gradientUnits="userSpaceOnUse">
<stop stop-color="#1F286F"/>
<stop offset="0.475" stop-color="#004E94"/>
<stop offset="0.826" stop-color="#0066B1"/>
<stop offset="1" stop-color="#006FBC"/>
</linearGradient>
<linearGradient id="paint4_linear_1583_2987" x1="10.2699" y1="14.0009" x2="17.5666" y2="14.0009" gradientUnits="userSpaceOnUse">
<stop stop-color="#6C2C2F"/>
<stop offset="0.173" stop-color="#882730"/>
<stop offset="0.573" stop-color="#BE1833"/>
<stop offset="0.859" stop-color="#DC0436"/>
<stop offset="1" stop-color="#E60039"/>
</linearGradient>
</defs>
</svg>
