<svg width="28" height="28" viewBox="0 0 28 28" fill="none" xmlns="http://www.w3.org/2000/svg">
<path fill-rule="evenodd" clip-rule="evenodd" d="M2 2H26V25.6364H2V2Z" fill="white"/>
<path fill-rule="evenodd" clip-rule="evenodd" d="M3.05642 23.7898H2.98782C2.98782 23.7561 2.97063 23.7053 2.97063 23.6883C2.97063 23.6715 2.97063 23.6378 2.91909 23.6378H2.81599V23.7898H2.76445V23.4347H2.91909C2.98782 23.4347 3.03924 23.4517 3.03924 23.5192C3.03924 23.57 3.02206 23.587 3.005 23.6037C3.02218 23.6207 3.03924 23.6376 3.03924 23.6715V23.7391C3.03924 23.7561 3.03924 23.7561 3.05642 23.7561V23.7898ZM2.98782 23.5362C2.98782 23.4855 2.95345 23.4855 2.93627 23.4855H2.81599V23.587H2.91909C2.95345 23.587 2.98782 23.57 2.98782 23.5362ZM3.27979 23.6038C3.27979 23.401 3.10809 23.2316 2.88472 23.2316C2.67866 23.2316 2.50684 23.401 2.50684 23.6038C2.50684 23.8237 2.67866 23.993 2.88472 23.993C3.10797 23.9929 3.27979 23.8237 3.27979 23.6038ZM3.22825 23.6038C3.22825 23.7899 3.07373 23.9252 2.88472 23.9252C2.69572 23.9252 2.55838 23.7898 2.55838 23.6038C2.55838 23.4347 2.69584 23.2824 2.88472 23.2824C3.0736 23.2824 3.22825 23.4347 3.22825 23.6038ZM24.3892 16.7699C24.3892 17.2774 24.0628 17.514 23.4788 17.514H22.3625V17.0064H23.4788C23.5819 17.0064 23.6678 16.9896 23.7023 16.9559C23.7365 16.9219 23.7709 16.8712 23.7709 16.8036C23.7709 16.7358 23.7366 16.6682 23.7023 16.6345C23.6678 16.6005 23.5992 16.5837 23.4961 16.5837C22.9638 16.5667 22.2938 16.6005 22.2938 15.8563C22.2938 15.5179 22.517 15.1457 23.1182 15.1457H24.2689V15.6533H23.204C23.1011 15.6533 23.0323 15.6533 22.9807 15.687C22.9292 15.7378 22.8949 15.7885 22.8949 15.8731C22.8949 15.9577 22.9465 16.0085 23.0151 16.0425C23.0839 16.0593 23.1527 16.0762 23.2386 16.0762H23.5476C23.874 16.0762 24.0801 16.1438 24.2176 16.2623C24.3204 16.3807 24.3892 16.5331 24.3892 16.7699ZM21.9673 16.2623C21.8299 16.1438 21.6237 16.0762 21.2973 16.0762H20.9883C20.9025 16.0762 20.8337 16.0592 20.7651 16.0425C20.6962 16.0085 20.6449 15.9577 20.6449 15.8731C20.6449 15.7885 20.662 15.7378 20.7307 15.687C20.7822 15.6533 20.8509 15.6533 20.9539 15.6533H22.0189V15.1457H20.8682C20.2497 15.1457 20.0435 15.5179 20.0435 15.8563C20.0435 16.6004 20.7135 16.5667 21.246 16.5837C21.3489 16.5837 21.4177 16.6005 21.452 16.6345C21.4862 16.6682 21.5208 16.7358 21.5208 16.8036C21.5208 16.8712 21.4864 16.9219 21.452 16.9559C21.4004 16.9896 21.3318 17.0064 21.2287 17.0064H20.1123V17.514H21.2287C21.8126 17.514 22.139 17.2773 22.139 16.7699C22.139 16.5331 22.0704 16.3807 21.9673 16.2623ZM19.7687 17.0236H18.4121V16.5499H19.7345V16.0764H18.4121V15.6365H19.7687V15.146H17.8452V17.5141H19.7687V17.0236ZM17.2268 15.2644C17.0377 15.1629 16.8145 15.1459 16.5225 15.1459H15.2001V17.514H15.7839V16.6513H16.4024C16.6083 16.6513 16.7287 16.6684 16.8146 16.7528C16.9177 16.8712 16.9177 17.0742 16.9177 17.2265V17.514H17.4844V17.0572C17.4844 16.8373 17.4673 16.7358 17.3986 16.6175C17.347 16.5497 17.2442 16.4652 17.1067 16.4144C17.2611 16.3639 17.519 16.1608 17.519 15.7885C17.5189 15.518 17.4158 15.3657 17.2268 15.2644ZM13.9634 15.1459H12.1255L11.3869 15.924L10.6826 15.1459H8.3639V17.514H10.6484L11.387 16.7358L12.0912 17.514H13.2077V16.7191H13.9291C14.4271 16.7191 14.9254 16.5837 14.9254 15.924C14.9253 15.2812 14.41 15.1459 13.9634 15.1459ZM16.763 16.1271C16.6772 16.1608 16.5913 16.1608 16.4882 16.1608L15.7839 16.1779V15.6364H16.4882C16.5913 15.6364 16.6943 15.6364 16.763 15.6871C16.8318 15.7211 16.8831 15.7887 16.8831 15.8902C16.8831 15.9917 16.8318 16.0763 16.763 16.1271ZM13.9634 16.2454H13.2076V15.6364H13.9634C14.1695 15.6364 14.3069 15.7211 14.3069 15.924C14.3069 16.1271 14.1694 16.2454 13.9634 16.2454ZM11.7476 16.3299L12.6407 15.3997V17.3111L11.7476 16.3299ZM10.3563 17.0236H8.93067V16.5499H10.2017V16.0764H8.93067V15.6365H10.3735L11.009 16.33L10.3563 17.0236ZM22.7917 13.4374H21.9673L20.8852 11.6612V13.4374H19.7174L19.4939 12.9129H18.2917L18.0684 13.4374H17.3984C17.1237 13.4374 16.763 13.3697 16.557 13.1666C16.368 12.9637 16.2649 12.693 16.2649 12.2701C16.2649 11.9149 16.3165 11.5935 16.5739 11.3398C16.7456 11.1536 17.0549 11.0691 17.4499 11.0691H17.9995V11.5767H17.4499C17.2439 11.5767 17.1235 11.6105 17.0034 11.712C16.9003 11.8136 16.8487 11.9996 16.8487 12.2533C16.8487 12.507 16.9003 12.6932 17.0034 12.8116C17.0892 12.8961 17.2439 12.9299 17.3983 12.9299H17.6561L18.4804 11.0693H19.3393L20.3011 13.3021V11.0691H21.1944L22.2078 12.71V11.0691H22.7916V13.4374H22.7917ZM15.9729 11.0691H15.3891V13.4374H15.9729V11.0691ZM14.7534 11.1707C14.5644 11.0691 14.3584 11.0691 14.0664 11.0691H12.7438V13.4374H13.3105V12.5746H13.9289C14.135 12.5746 14.2725 12.5915 14.3583 12.6761C14.4614 12.7946 14.4441 12.9976 14.4441 13.1329V13.4374H15.0279V12.9637C15.0279 12.7607 15.0109 12.6592 14.9251 12.5407C14.8735 12.473 14.7704 12.3884 14.6503 12.3378C14.8047 12.2701 15.0625 12.0841 15.0625 11.7119C15.0626 11.4413 14.9422 11.289 14.7534 11.1707ZM12.3315 12.9469H10.9918V12.4732H12.3143V11.9827H10.9918V11.5597H12.3315V11.0693H10.4079V13.4375H12.3315V12.9469ZM9.97842 11.0691H9.03376L8.32953 12.6761L7.57376 11.0691H6.64629V13.302L5.66727 11.0691H4.80852L3.77796 13.4374H4.39627L4.61952 12.9129H5.82178L6.04503 13.4374H7.21306V11.5767L8.05462 13.4374H8.55266L9.39434 11.5767V13.4374H9.97829V11.0691H9.97842ZM19.288 12.4055L18.8928 11.4751L18.4979 12.4055H19.288ZM14.3069 12.0334C14.2211 12.0842 14.1352 12.0842 14.0149 12.0842H13.3105V11.5599H14.0148C14.1179 11.5599 14.2379 11.5599 14.3067 11.5937C14.3754 11.6445 14.4098 11.7122 14.4098 11.8136C14.4098 11.915 14.3755 11.9995 14.3069 12.0334ZM4.82558 12.4055L5.22065 11.4751L5.61572 12.4055H4.82558ZM24.2518 3.64307H3.76065V12.1687L4.46488 10.5956H5.95912L6.16531 10.9846V10.5956H7.91728L8.31235 11.4413L8.69024 10.5956H14.2725C14.53 10.5956 14.7532 10.6463 14.9252 10.7816V10.5956H16.4538V10.7816C16.7113 10.6462 17.0376 10.5956 17.4156 10.5956H19.6313L19.8375 10.9846V10.5956H21.4692L21.7097 10.9846V10.5956H23.3069V13.911H21.6925L21.3835 13.4036V13.911H19.3738L19.1506 13.3698H18.6523L18.429 13.911H17.3814C16.9691 13.911 16.6599 13.8095 16.4539 13.7081V13.911H13.9634V13.1498C13.9634 13.0483 13.9462 13.0313 13.8774 13.0313H13.7917V13.9109H8.98221V13.488L8.81052 13.9109H7.79713L7.62543 13.5049V13.9109H5.68445L5.47839 13.3697H4.98022L4.75698 13.9109H3.76065V23.9083H24.2518V17.8354C24.0286 17.9369 23.7193 17.9877 23.4102 17.9877H21.9158V17.7846C21.7441 17.9201 21.4348 17.9877 21.143 17.9877H16.4366V17.2265C16.4366 17.125 16.4196 17.125 16.3335 17.125H16.2477V17.9877H14.7018V17.0912C14.4443 17.2095 14.1522 17.2095 13.8946 17.2095H13.7228V17.9877H11.8335L11.387 17.4801L10.889 17.9877H7.84855V14.6723H10.9403L11.3869 15.1796L11.8679 14.6723H13.9462C14.1865 14.6723 14.5817 14.706 14.7534 14.8751V14.6723H16.6083C16.7973 14.6723 17.1581 14.706 17.3984 14.8751V14.6723H20.1982V14.8752C20.3528 14.7399 20.6449 14.6724 20.9024 14.6724H22.4654V14.8752C22.6373 14.7569 22.8776 14.6724 23.1869 14.6724H24.2518V3.64307Z" fill="#0077A6"/>
</svg>
