<svg width="28" height="28" viewBox="0 0 28 28" fill="none" xmlns="http://www.w3.org/2000/svg">
<path d="M12.387 18.1429H10.4069L11.6444 9.86232H13.6248L12.387 18.1429ZM8.74112 9.86232L6.85337 15.5578L6.62999 14.3313L6.63019 14.3318L5.96392 10.6079C5.96392 10.6079 5.88335 9.86232 5.02462 9.86232H1.90381L1.86719 10.0025C1.86719 10.0025 2.82154 10.2187 3.93844 10.949L5.65875 18.1431H7.72187L10.8722 9.86232H8.74112ZM24.3157 18.1429H26.1339L24.5486 9.8621H22.9569C22.2219 9.8621 22.0428 10.4792 22.0428 10.4792L19.0896 18.1429H21.1538L21.5666 16.9129H24.0838L24.3157 18.1429ZM22.1368 15.2138L23.1772 12.115L23.7625 15.2138H22.1368ZM19.2445 11.8536L19.527 10.0754C19.527 10.0754 18.6551 9.71436 17.7461 9.71436C16.7635 9.71436 14.43 10.1819 14.43 12.4557C14.43 14.5949 17.1687 14.6215 17.1687 15.7452C17.1687 16.8688 14.7122 16.6675 13.9014 15.9589L13.6071 17.8182C13.6071 17.8182 14.4912 18.2858 15.8421 18.2858C17.1934 18.2858 19.2319 17.524 19.2319 15.4508C19.2319 13.2978 16.4685 13.0973 16.4685 12.1613C16.4687 11.225 18.3971 11.3453 19.2445 11.8536Z" fill="#2566AF"/>
<path d="M6.63019 14.3318L5.96392 10.6079C5.96392 10.6079 5.88335 9.8623 5.02462 9.8623H1.90381L1.86719 10.0025C1.86719 10.0025 3.36717 10.341 4.80592 11.6091C6.1816 12.8211 6.63019 14.3318 6.63019 14.3318Z" fill="#E6A540"/>
</svg>
