<svg width="110" height="160" viewBox="0 0 110 160" fill="none" xmlns="http://www.w3.org/2000/svg">
<path d="M74.0238 75.46C74.0238 75.46 80.6961 71.7024 81.9603 43.1522C84.1376 9.08863 57.2379 8 57.2379 8C44.2445 8 25.9836 14.7425 26.8616 41.572C27.7746 68.4014 35.0087 75.46 35.0087 75.46" fill="#BC4E25"/>
<path d="M74.0238 75.46C74.0238 75.46 80.6961 71.7024 81.9603 43.1522C84.1376 9.08863 57.2379 8 57.2379 8C44.2445 8 25.9836 14.7425 26.8616 41.572C27.7746 68.4014 35.0087 75.46 35.0087 75.46" stroke="#1A1A1A" stroke-width="3" stroke-miterlimit="10" stroke-linecap="round" stroke-linejoin="round"/>
<path d="M92.5311 148.433C111.003 148.539 99.5194 98.3212 96.3588 88.383C94.4625 82.378 84.3137 78.1289 76.5879 75.6707" stroke="#1A1A1A" stroke-width="3" stroke-miterlimit="10" stroke-linecap="round" stroke-linejoin="round"/>
<path d="M73.8132 78.5853C73.8132 78.5853 69.0373 90.4198 54.3232 90.4198C39.6091 90.4198 35.8867 78.5853 35.8867 78.5853V75.4248L45.5439 72.3345L46.4219 67.3127H61.6276L62.8567 72.2291L73.8132 75.495V77.7074" fill="white"/>
<path d="M73.8132 78.5853C73.8132 78.5853 69.0373 90.4198 54.3232 90.4198C39.6091 90.4198 35.8867 78.5853 35.8867 78.5853V75.4248L45.5439 72.3345L46.4219 67.3127H61.6276L62.8567 72.2291L73.8132 75.495V77.7074" stroke="#1A1A1A" stroke-width="3" stroke-miterlimit="10" stroke-linecap="round" stroke-linejoin="round"/>
<path d="M35.0091 75.46C27.2131 77.8479 16.397 82.2024 14.4304 88.4182C11.2699 98.3212 -0.213394 148.539 18.2582 148.468" stroke="#1A1A1A" stroke-width="3" stroke-miterlimit="10" stroke-linecap="round" stroke-linejoin="round"/>
<path d="M91.4768 149.979C91.4768 150.962 90.6691 151.91 89.6858 151.91H21.6288C20.6455 151.91 19.8378 150.962 19.8378 149.979L18.9248 103.343C18.9248 102.36 19.7325 101.341 20.7158 101.341H90.5988C91.5821 101.341 92.3898 102.325 92.3898 103.343L91.4768 149.979Z" stroke="#1A1A1A" stroke-width="3" stroke-miterlimit="10" stroke-linecap="round" stroke-linejoin="round"/>
<path d="M48.8096 125.958C48.8096 122.095 51.935 118.97 55.7979 118.97C59.6608 118.97 62.7862 122.095 62.7862 125.958C62.7862 129.821 59.6608 132.947 55.7979 132.947C51.935 132.947 48.8096 129.821 48.8096 125.958Z" fill="#FFCFC0"/>
<path d="M73.7786 44.4163C73.7786 49.0166 72.3388 56.1805 72.3388 56.1805C72.3388 56.1805 67.1063 72.5451 53.9023 72.5451C40.6983 72.5451 34.8337 56.1805 34.8337 56.1805C34.8337 56.1805 35.3253 49.6487 33.71 40.7641L34.8337 39.4296C53.4107 35.8126 62.3304 22.9597 62.3304 22.9597C62.3304 22.9597 66.4742 34.2323 73.7786 38.6922C73.7786 38.6922 81.7853 38.7624 79.292 46.8394C76.7987 54.9163 73.0411 52.7741 73.0411 52.7741" fill="white"/>
<path d="M73.7786 44.4163C73.7786 49.0166 72.3388 56.1805 72.3388 56.1805C72.3388 56.1805 67.1063 72.5451 53.9023 72.5451C40.6983 72.5451 34.8337 56.1805 34.8337 56.1805C34.8337 56.1805 35.3253 49.6487 33.71 40.7641L34.8337 39.4296C53.4107 35.8126 62.3304 22.9597 62.3304 22.9597C62.3304 22.9597 66.4742 34.2323 73.7786 38.6922C73.7786 38.6922 81.7853 38.7624 79.292 46.8394C76.7987 54.9163 73.0411 52.7741 73.0411 52.7741" stroke="#1A1A1A" stroke-width="3" stroke-miterlimit="10" stroke-linecap="round" stroke-linejoin="round"/>
<path d="M47.0544 47.4715C47.0544 48.2792 46.4223 48.9113 45.6146 48.9113C44.8069 48.9113 44.1748 48.2792 44.1748 47.4715C44.1748 46.6638 44.8069 46.0317 45.6146 46.0317C46.3872 46.0317 47.0544 46.699 47.0544 47.4715Z" fill="#1A1A1A" stroke="#1A1A1A" stroke-width="2" stroke-miterlimit="10" stroke-linecap="round" stroke-linejoin="round"/>
<path d="M62.6462 47.4715C62.6462 48.2792 62.0141 48.9113 61.2064 48.9113C60.3987 48.9113 59.7666 48.2792 59.7666 47.4715C59.7666 46.6638 60.3987 46.0317 61.2064 46.0317C62.0141 46.0317 62.6462 46.699 62.6462 47.4715Z" fill="#1A1A1A" stroke="#1A1A1A" stroke-width="2" stroke-miterlimit="10" stroke-linecap="round" stroke-linejoin="round"/>
<path d="M18.9253 146.151C18.9253 146.151 13.2715 145.062 13.2715 139.584C13.2715 134.106 19.5574 134.527 19.5574 134.527" stroke="#1A1A1A" stroke-width="3" stroke-miterlimit="10" stroke-linecap="round" stroke-linejoin="round"/>
<path d="M92.3899 146.151C92.3899 146.151 98.0438 145.062 98.0438 139.584C98.0438 134.106 91.7578 134.527 91.7578 134.527" stroke="#1A1A1A" stroke-width="3" stroke-miterlimit="10" stroke-linecap="round" stroke-linejoin="round"/>
<path d="M49.127 61.2375C49.127 61.2375 49.8644 62.0452 53.8326 62.0452C57.8009 62.0452 58.433 61.2375 58.433 61.2375" stroke="#1A1A1A" stroke-width="2" stroke-miterlimit="10" stroke-linecap="round" stroke-linejoin="round"/>
</svg>
