<svg width="256" height="127" viewBox="0 0 256 127" fill="none" xmlns="http://www.w3.org/2000/svg">
<g clip-path="url(#clip0_9062_4694)">
<path fill-rule="evenodd" clip-rule="evenodd" d="M16.4102 82.6757C16.4102 81.3403 17.5158 80.2454 18.8642 80.2454C20.2125 80.2454 21.3182 81.3403 21.3182 82.6757C21.3182 84.0111 20.2125 85.106 18.8642 85.106C17.5158 85.106 16.4102 84.0111 16.4102 82.6757Z" fill="#BC4E25"/>
<path fill-rule="evenodd" clip-rule="evenodd" d="M10.5039 82.6757C10.5039 81.3403 11.6096 80.2454 12.9579 80.2454C14.3063 80.2454 15.4119 81.3403 15.4119 82.6757C15.4119 84.0111 14.3063 85.106 12.9579 85.106C11.6096 85.106 10.5039 84.0111 10.5039 82.6757Z" fill="#BC4E25"/>
<path fill-rule="evenodd" clip-rule="evenodd" d="M102.085 82.6757C102.085 81.3403 103.191 80.2454 104.539 80.2454C105.887 80.2454 106.993 81.3403 106.993 82.6757C106.993 84.0111 105.887 85.106 104.539 85.106C103.164 85.106 102.085 84.0111 102.085 82.6757Z" fill="#BC4E25"/>
<path fill-rule="evenodd" clip-rule="evenodd" d="M96.1523 82.6757C96.1523 81.3403 97.258 80.2454 98.6064 80.2454C99.9547 80.2454 101.06 81.3403 101.06 82.6757C101.06 84.0111 99.9547 85.106 98.6064 85.106C97.258 85.106 96.1523 84.0111 96.1523 82.6757Z" fill="#BC4E25"/>
<path fill-rule="evenodd" clip-rule="evenodd" d="M250.323 82.6757C250.323 81.3403 251.429 80.2454 252.777 80.2454C254.126 80.2454 255.231 81.3403 255.231 82.6757C255.231 84.0111 254.126 85.106 252.777 85.106C251.429 85.106 250.323 84.0111 250.323 82.6757Z" fill="#BC4E25"/>
<path fill-rule="evenodd" clip-rule="evenodd" d="M244.417 82.6757C244.417 81.3403 245.523 80.2454 246.871 80.2454C248.219 80.2454 249.325 81.3403 249.325 82.6757C249.325 84.0111 248.219 85.106 246.871 85.106C245.523 85.106 244.417 84.0111 244.417 82.6757Z" fill="#BC4E25"/>
<path d="M152.81 87.1091H149.25V92.2369H152.81V87.1091Z" fill="#3E3A39"/>
<path d="M157.637 87.1091H154.077V92.2369H157.637V87.1091Z" fill="#3E3A39"/>
<path d="M46.6939 80.272H26.1719V85.3997H46.6939V80.272Z" fill="#3E3A39"/>
<path d="M121.178 90.1003H103.703V95.2281H121.178V90.1003Z" fill="#3E3A39"/>
<path d="M207.31 80.272H197.09V85.3997H207.31V80.272Z" fill="#3E3A39"/>
<path d="M157.205 102.119H149.25V96.9907H157.205C160.253 96.9907 162.14 94.3735 162.14 92.4773V87.1091H167.318V92.4773C167.318 97.151 163.246 102.119 157.205 102.119Z" fill="#3E3A39"/>
<path d="M207.554 102.065H197.063V96.9373H207.554C210.601 96.9373 212.489 94.32 212.489 92.4238V80.2454H217.666V92.4238C217.666 97.0708 213.594 102.065 207.554 102.065Z" fill="#3E3A39"/>
<path d="M66.6769 80.2454C66.6769 81.5273 65.9758 84.3315 63.2791 85.8538C60.6093 87.3494 59.7194 87.3494 54.7844 87.296C53.7866 87.296 52.6271 87.2693 51.3057 87.2693V92.3971C52.6001 92.3971 53.7327 92.3971 54.7305 92.4238C55.4856 92.4238 56.1867 92.4505 56.8339 92.4505C58.0744 92.4505 59.0992 92.4238 60.07 92.317V102.118H65.2477V90.6611C65.4365 90.5543 65.6522 90.4475 65.8679 90.3139C70.0209 87.9637 71.8816 83.5837 71.8816 80.2454H66.6769Z" fill="#3E3A39"/>
<path d="M73.8506 102.225V97.0975C77.9226 97.0975 79.5676 88.1506 79.5676 84.4117V80.2454H84.7453V84.4117C84.7183 89.3792 82.7767 102.225 73.8506 102.225Z" fill="#3E3A39"/>
<path d="M87.3604 80.2188C88.466 82.4621 92.3493 91.2221 92.3493 102.119H97.527C97.527 92.4239 94.7763 84.3583 93.0235 80.2188H87.3604Z" fill="#3E3A39"/>
<path d="M192.56 88.7917H185.306V86.2813C189.512 85.6136 191.643 82.7826 192.371 80.2188H186.654C186.061 80.8063 185.063 81.3137 183.364 81.3137H172.038V86.4415H180.128V88.7917H172.038V93.9195H180.128V94.24C180.128 94.9343 179.238 96.9641 176.514 96.9641H172.011V102.092H176.514C181.773 102.092 185.279 98.0324 185.279 94.24V93.9195H192.533V88.7917H192.56Z" fill="#3E3A39"/>
<path d="M46.7478 87.2427H26.1719V92.3704H41.5971V93.0381C41.5971 94.7207 39.8712 97.0175 36.6621 97.0175H28.7068V102.145H36.6621C42.8915 102.145 46.7748 97.4181 46.7748 93.0381L46.7478 87.2427Z" fill="#3E3A39"/>
<path d="M5.91988 85.5334V80.2454H0.742188V102.118H5.91988V93.1449C7.07947 93.6256 8.42783 93.9194 10.0189 93.9194H21.3451V88.7916H10.0189C6.54013 88.7916 5.97381 86.5215 5.91988 85.5334Z" fill="#3E3A39"/>
<path d="M124.144 80.272V85.3997H139.569V88.7648C139.569 89.2456 139.407 91.6225 135.955 91.6225H133.933C133.609 90.9815 133.258 90.3673 132.935 89.8331H126.786C128.512 92.21 131.829 97.7117 131.829 102.145H137.007C137.007 100.329 136.656 98.5129 136.09 96.7502C141.753 96.6968 144.746 92.7175 144.746 88.7915V80.2987H124.144V80.272Z" fill="#3E3A39"/>
<path d="M223.949 80.2721V87.1892C223.949 87.2159 223.949 87.2159 223.949 87.2426H222.196V92.3704H224.003C227.185 92.3704 229.154 90.394 229.154 87.1892V85.3731H237.648V92.4238C237.648 94.6405 235.815 96.9373 232.713 96.9373H227.536V102.065H232.66C238.889 102.065 242.772 97.0708 242.772 92.4238V80.2454H223.949V80.2721Z" fill="#3E3A39"/>
<path d="M108.8 13.7715C108.8 14.0386 108.773 14.2789 108.746 14.546C112.764 11.715 117.537 10.1927 122.553 10.1927C124.468 10.1927 126.356 10.4331 128.189 10.8604C128.729 8.00275 130.104 5.27863 132.342 3.08865C132.585 2.84829 132.828 2.66134 133.07 2.44768C129.726 1.35269 126.194 0.765137 122.553 0.765137C115.245 0.765137 108.288 3.08865 102.517 7.36178C104.162 7.4152 105.699 8.08287 106.885 9.23128C108.126 10.4331 108.8 12.0355 108.8 13.7715Z" fill="#1A1A1A"/>
<path d="M136.36 53.0842C132.342 55.9152 127.569 57.4375 122.553 57.4375C120.665 57.4375 118.804 57.2238 117.025 56.7965C116.431 59.5206 115.083 62.1379 112.952 64.2478C112.629 64.5683 112.278 64.862 111.928 65.1558C115.299 66.2775 118.885 66.8651 122.553 66.8651C129.861 66.8651 136.818 64.5416 142.589 60.2684C140.944 60.215 139.407 59.5473 138.221 58.3989C136.738 56.9568 136.144 54.9804 136.36 53.0842Z" fill="#1A1A1A"/>
<path d="M90.8126 44.1375C91.0823 43.817 91.3519 43.4966 91.6755 43.2028C93.8329 41.0662 96.5027 39.7042 99.3072 39.1433C98.9027 37.4073 98.687 35.6447 98.687 33.8286C98.687 27.5257 101.168 21.5701 105.671 17.11C107.532 15.2672 107.532 12.276 105.671 10.4332C104.755 9.52516 103.514 9.04443 102.301 9.04443C102.004 9.04443 101.68 9.07114 101.384 9.12455C100.494 9.2848 99.6309 9.73882 98.9297 10.4332C98.8218 10.54 98.7409 10.6469 98.6331 10.727C92.5115 16.9497 89.1406 25.1221 89.1406 33.8019C89.1676 37.3806 89.7339 40.8258 90.8126 44.1375Z" fill="#4D4D4D"/>
<path d="M154.266 23.4128C154.05 23.6532 153.861 23.8936 153.619 24.1072C151.38 26.3239 148.63 27.686 145.771 28.2201C146.203 30.0362 146.445 31.9057 146.445 33.8019C146.445 38.9029 144.827 43.7369 141.834 47.7697C141.834 47.7697 141.834 47.7697 141.834 47.7964C141.645 48.0368 141.457 48.3038 141.241 48.5442C141.187 48.6243 141.133 48.6777 141.079 48.7579C140.944 48.9181 140.782 49.0783 140.648 49.2653C140.513 49.3988 140.405 49.5591 140.27 49.6926C140.243 49.7193 140.216 49.746 140.216 49.7727C139.973 50.0398 139.731 50.3069 139.461 50.5739C137.6 52.4167 137.6 55.4079 139.461 57.224C140.405 58.132 141.618 58.6128 142.832 58.6128C144.045 58.6128 145.259 58.1587 146.203 57.224C146.607 56.8234 146.985 56.4228 147.362 55.9955C147.416 55.9421 147.47 55.8619 147.551 55.7818C147.875 55.4346 148.198 55.0607 148.495 54.7135C148.522 54.6868 148.522 54.6868 148.549 54.6601C155.83 45.7132 157.718 33.882 154.266 23.4128Z" fill="#4D4D4D"/>
<path d="M131.074 13.5845C131.074 7.06793 136.414 1.80664 142.967 1.80664C149.547 1.80664 154.859 7.09464 154.859 13.5845C154.859 20.101 149.52 25.3623 142.967 25.3623C136.414 25.3623 131.074 20.101 131.074 13.5845Z" fill="#BC4E25"/>
<path d="M90.4082 53.8589C90.4082 47.3423 95.7477 42.0811 102.301 42.0811C108.881 42.0811 114.193 47.3691 114.193 53.8589C114.193 60.3754 108.854 65.6367 102.301 65.6367C95.7477 65.6634 90.4082 60.3754 90.4082 53.8589Z" fill="#BC4E25"/>
<path d="M101.167 126.235H98.8213V121.187C98.8213 119.131 100.493 116.914 103.001 116.914H104.781V119.238H103.001C101.896 119.238 101.167 120.252 101.167 121.187V126.235Z" fill="#BC4E25"/>
<path d="M158.095 126.235H155.749V121.187C155.749 118.837 157.637 116.914 159.929 116.914H161.709V119.238H159.929C158.823 119.238 158.095 120.252 158.095 121.187V126.235Z" fill="#BC4E25"/>
<path d="M152.756 126.261H149.601C146.796 126.261 144.854 124.339 144.854 121.561C144.854 118.65 146.661 116.861 149.601 116.861C152.54 116.861 154.347 118.65 154.347 121.561C154.347 122.202 153.808 122.736 153.16 122.736H147.443C147.713 123.35 148.333 123.938 149.601 123.938H152.729V126.261H152.756ZM147.416 120.413H151.812C151.327 119.211 150.086 119.211 149.628 119.211C149.142 119.211 147.902 119.211 147.416 120.413Z" fill="#BC4E25"/>
<path d="M92.7534 126.262C90.1376 126.262 88.0342 124.152 88.0342 121.588C88.0342 118.997 90.1646 116.914 92.7534 116.914C95.3692 116.914 97.4727 119.024 97.4727 121.588C97.4727 124.178 95.3423 126.262 92.7534 126.262ZM92.7534 119.238C91.432 119.238 90.3803 120.306 90.3803 121.588C90.3803 122.896 91.459 123.938 92.7534 123.938C94.0748 123.938 95.1265 122.87 95.1265 121.588C95.1265 120.279 94.0479 119.238 92.7534 119.238Z" fill="#BC4E25"/>
<path d="M82.9648 126.235H85.3109V119.238H86.8481V116.914H85.4188C85.6615 116.22 86.2817 115.606 87.1447 115.606H88.9245V113.282H87.1447C84.9064 113.282 83.3154 115.045 83.0187 116.914H81.5625V119.238H82.9648V126.235Z" fill="#BC4E25"/>
<path d="M129.294 121.428L128.054 117.742C128.027 117.689 128.027 117.662 128 117.609C128 117.609 128 117.609 128 117.582C127.757 117.074 127.137 116.807 126.57 116.994C126.193 117.128 125.896 117.448 125.815 117.796L124.575 121.401L122.93 116.754H120.422L123.496 125.274C123.658 125.728 124.116 126.021 124.602 126.021C125.114 126.021 125.546 125.781 125.707 125.3L126.921 121.748L128.108 125.274C128.269 125.754 128.701 125.995 129.213 125.995C129.213 125.995 129.213 125.995 129.24 125.995C129.726 125.995 130.184 125.701 130.346 125.247L133.501 116.727H130.993L129.294 121.428Z" fill="#BC4E25"/>
<path d="M139.299 116.887H134.715V126.208H137.061V119.211H139.272C140.378 119.211 141.106 120.226 141.106 121.161V126.208H143.452V121.187C143.479 119.104 141.807 116.887 139.299 116.887Z" fill="#BC4E25"/>
<path d="M112.79 126.235C109.123 126.235 106.156 123.297 106.156 119.665C106.156 116.033 109.123 113.095 112.79 113.095C116.458 113.095 119.424 116.033 119.424 119.665C119.424 123.27 116.458 126.235 112.79 126.235ZM112.79 115.258C110.336 115.258 108.368 117.235 108.368 119.638C108.368 122.042 110.363 124.018 112.79 124.018C115.244 124.018 117.213 122.042 117.213 119.638C117.213 117.235 115.244 115.258 112.79 115.258Z" fill="#BC4E25"/>
</g>
<defs>
<clipPath id="clip0_9062_4694">
<rect width="256" height="127" fill="white"/>
</clipPath>
</defs>
</svg>
