<svg width="8" height="15" viewBox="0 0 8 15" fill="none" xmlns="http://www.w3.org/2000/svg">
<path d="M1.16999 0.000700951C1.31938 0.000192642 1.46699 0.033165 1.60197 0.0971937C1.73695 0.161222 1.85587 0.254682 1.94999 0.370702L6.77999 6.3707C6.92707 6.54963 7.00748 6.77408 7.00748 7.0057C7.00748 7.23733 6.92707 7.46177 6.77999 7.6407L1.77999 13.6407C1.61025 13.8449 1.36634 13.9733 1.10191 13.9977C0.837487 14.0221 0.574205 13.9404 0.369989 13.7707C0.165772 13.601 0.0373483 13.3571 0.0129685 13.0926C-0.0114112 12.8282 0.07025 12.5649 0.239989 12.3607L4.70999 7.0007L0.389989 1.6407C0.267706 1.49392 0.190029 1.31518 0.16615 1.12563C0.14227 0.936078 0.173187 0.743653 0.255243 0.571126C0.337299 0.398599 0.467059 0.253187 0.629169 0.152097C0.791279 0.0510063 0.978955 -0.00153065 1.16999 0.000700951Z" fill="black"/>
</svg>
