<svg width="32" height="30" viewBox="0 0 32 30" fill="none" xmlns="http://www.w3.org/2000/svg">
<path d="M0.00884222 8.70898C10.6991 8.70898 21.3274 8.70898 32 8.70898C32 8.87747 32 9.02823 32 9.17898C32 14.9963 32 20.8136 32 26.6398C32 28.3513 30.8594 29.6726 29.1705 29.9387C28.9229 29.9741 28.6665 30.0007 28.4101 30.0007C19.9038 30.0007 11.3976 30.0007 2.89141 30.0007C1.17602 30.0007 0.0884222 28.9455 0.00884222 27.2162C0 27.0832 0 26.9502 0 26.8172C0 20.9112 0 15.0052 0 9.0903C0.00884222 8.97502 0.00884222 8.85087 0.00884222 8.70898ZM25.6248 14.4731C25.6248 14.0652 25.6336 13.6573 25.6248 13.2493C25.6159 12.7173 25.3064 12.4069 24.7759 12.4069C23.9801 12.398 23.1931 12.398 22.3973 12.4069C21.8757 12.4069 21.5573 12.6995 21.5397 13.205C21.522 14.0297 21.522 14.8633 21.5397 15.688C21.5485 16.1757 21.8491 16.4772 22.3355 16.4861C23.1755 16.5038 24.0066 16.5038 24.8466 16.4861C25.3772 16.4684 25.6159 16.1935 25.6248 15.6614C25.6248 15.2712 25.6248 14.8722 25.6248 14.4731ZM15.6242 25.487C16.0221 25.487 16.42 25.4959 16.8091 25.487C17.3573 25.4781 17.6314 25.2298 17.6402 24.68C17.6579 23.8642 17.6579 23.0483 17.6402 22.2325C17.6314 21.7093 17.3308 21.4078 16.8091 21.3989C15.9956 21.3812 15.1821 21.3812 14.3686 21.3989C13.8469 21.4078 13.564 21.727 13.564 22.2502C13.5551 23.0483 13.5551 23.8376 13.564 24.6357C13.564 25.1855 13.8734 25.487 14.4305 25.4959C14.8372 25.4959 15.2351 25.487 15.6242 25.487ZM25.6248 23.4651C25.6248 23.0572 25.6336 22.6493 25.6248 22.2414C25.6159 21.727 25.3241 21.4078 24.8113 21.3989C23.9978 21.3812 23.1843 21.3812 22.3708 21.3989C21.8668 21.4078 21.5662 21.7093 21.5485 22.2059C21.5308 23.0306 21.5308 23.8642 21.5485 24.6889C21.5573 25.1944 21.8757 25.4781 22.3797 25.487C23.1931 25.4959 24.0066 25.4959 24.8201 25.487C25.3595 25.4781 25.6159 25.2121 25.6248 24.6623C25.6248 24.2632 25.6248 23.8642 25.6248 23.4651ZM13.5728 14.4465C13.5728 14.8544 13.564 15.2623 13.5728 15.6703C13.5817 16.1491 13.8381 16.4684 14.3067 16.4861C15.1821 16.5127 16.0663 16.5127 16.9505 16.4861C17.3927 16.4684 17.6225 16.2378 17.6402 15.7944C17.6668 14.9165 17.6668 14.0297 17.6402 13.1429C17.6314 12.6907 17.3042 12.4158 16.8621 12.4158C16.0398 12.4069 15.2086 12.4069 14.3863 12.4158C13.8911 12.4246 13.5905 12.7261 13.5817 13.2316C13.564 13.6307 13.5728 14.0386 13.5728 14.4465ZM5.69439 23.4296C5.69439 23.8198 5.69439 24.2012 5.69439 24.5913C5.69439 24.6091 5.69439 24.6357 5.69439 24.6534C5.71208 25.1678 6.01271 25.4781 6.52556 25.487C7.30367 25.4959 8.09063 25.4959 8.86875 25.487C9.3816 25.4781 9.75297 25.1766 9.77065 24.6623C9.80602 23.8287 9.79718 22.9863 9.77065 22.1438C9.75297 21.7004 9.47002 21.4166 9.02791 21.3989C8.17021 21.3723 7.31252 21.3723 6.45482 21.3989C5.99503 21.4078 5.71208 21.7359 5.70323 22.197C5.68555 22.6138 5.69439 23.0217 5.69439 23.4296ZM7.74579 12.4069C7.33904 12.4069 6.9323 12.398 6.52556 12.4069C6.01271 12.4158 5.70323 12.7173 5.69439 13.2316C5.68555 14.0386 5.68555 14.8456 5.69439 15.6525C5.69439 16.158 5.97734 16.4772 6.48135 16.495C7.29483 16.5216 8.10832 16.5216 8.9218 16.495C9.41697 16.4772 9.75297 16.1491 9.77065 15.6525C9.79718 14.8278 9.79718 13.9942 9.76181 13.1695C9.74413 12.6907 9.41697 12.4246 8.93064 12.4158C8.54159 12.398 8.14369 12.4069 7.74579 12.4069Z" fill="black"/>
<path d="M5.58816 0C5.58816 0.177357 5.58816 0.310375 5.58816 0.452261C5.58816 1.26811 5.57932 2.09282 5.58816 2.90866C5.597 3.55602 6.01259 3.99054 6.59617 3.99054C7.17976 3.99054 7.5865 3.55602 7.5865 2.89979C7.59534 1.95093 7.5865 1.00207 7.5865 0.0266036C12.9007 0.0266036 18.1883 0.0266036 23.5113 0.0266036C23.5202 0.141886 23.529 0.257168 23.529 0.372451C23.529 1.23263 23.5202 2.10169 23.5379 2.96187C23.5467 3.45847 23.8297 3.83092 24.2629 3.95507C24.6608 4.07035 25.1295 3.92847 25.3417 3.56488C25.4655 3.36092 25.5274 3.08602 25.5274 2.84659C25.5539 2.03074 25.5362 1.20603 25.5362 0.390186C25.5362 0.274904 25.5362 0.150754 25.5362 0.0266036C25.6246 0.0177357 25.6777 0 25.7307 0C26.8449 0.0177357 27.959 -0.0354715 29.0642 0.070943C30.4613 0.203961 31.6639 1.37452 31.8761 2.64263C31.8938 2.75791 31.9026 2.88206 31.9026 3.00621C31.9026 4.15903 31.9026 5.30299 31.9026 6.45581C31.9026 6.49128 31.8938 6.51788 31.8849 6.57109C21.2654 6.57109 10.6548 6.57109 0.0617752 6.57109C0.0617752 5.16997 -0.026647 3.78658 0.0883018 2.41206C0.212093 0.886787 1.32621 0 2.8736 0C3.76666 0 4.65089 0 5.58816 0Z" fill="black"/>
</svg>
