<svg width="19" height="24" viewBox="0 0 19 24" fill="none" xmlns="http://www.w3.org/2000/svg">
<path d="M13.5547 24C13.4064 23.849 13.2607 23.6954 13.1098 23.5471C11.522 21.9862 9.93354 20.4259 8.34642 18.8637C8.28764 18.8059 8.20748 18.7619 8.17676 18.6516C8.41523 18.6516 8.64234 18.6516 8.87012 18.6516C9.89747 18.6516 10.9248 18.6438 11.9522 18.6575C12.1806 18.6608 12.2174 18.5893 12.2167 18.3858C12.21 15.4432 12.2154 12.5005 12.2067 9.55786C12.206 9.33862 12.2681 9.29202 12.4799 9.29595C13.2127 9.30908 13.9454 9.30908 14.6782 9.29595C14.8853 9.29202 14.9407 9.33797 14.94 9.54933C14.932 12.4999 14.9367 15.4504 14.9294 18.4009C14.9287 18.5998 14.9661 18.6602 15.1832 18.6575C16.3615 18.6451 17.5405 18.6516 18.7195 18.6516C18.797 18.6516 18.8744 18.6516 19 18.6516C18.9152 18.7416 18.8604 18.8033 18.8023 18.861C17.119 20.5158 15.4344 22.1706 13.7517 23.8261C13.6976 23.8792 13.6221 23.9173 13.6028 24C13.5867 24 13.5707 24 13.5547 24Z" fill="#010101"/>
<path d="M0 5.29839C1.82626 3.50379 3.62112 1.73938 5.39193 -0.000741959C7.18078 1.75841 8.97898 3.5261 10.7812 5.29839C10.7197 5.29839 10.6436 5.29839 10.5674 5.29839C9.38043 5.29839 8.1941 5.30429 7.0071 5.29314C6.80003 5.29117 6.76596 5.35221 6.76596 5.53994C6.77197 8.49047 6.7673 11.4416 6.77598 14.3922C6.77665 14.6114 6.71386 14.658 6.50278 14.6541C5.76199 14.6409 5.0212 14.6429 4.28041 14.6534C4.09538 14.656 4.04328 14.6114 4.04395 14.4243C4.05063 11.4659 4.04662 8.50753 4.0533 5.54847C4.05397 5.34762 4.01322 5.29051 3.79813 5.29248C2.61915 5.30495 1.44083 5.29839 0.261848 5.29839C0.18503 5.29839 0.107545 5.29839 0 5.29839Z" fill="#010101"/>
</svg>
